<svg width="120" height="32" viewBox="0 0 120 32" fill="none" xmlns="http://www.w3.org/2000/svg">
<path d="M17.9235 15.1917C17.9364 14.187 18.2033 13.2019 18.6993 12.3281C19.1952 11.4542 19.9041 10.72 20.7601 10.1938C20.2163 9.41722 19.499 8.77811 18.665 8.32725C17.8311 7.87639 16.9035 7.62619 15.9559 7.59652C13.9345 7.38431 11.9749 8.80603 10.9448 8.80603C9.89487 8.80603 8.30895 7.61759 6.60122 7.65274C5.49658 7.6884 4.42002 8.0096 3.47642 8.58504C2.53283 9.16048 1.75438 9.97053 1.21694 10.9363C-1.11107 14.967 0.625426 20.8905 2.85558 24.1485C3.97131 25.7439 5.27519 27.526 6.98148 27.4628C8.65105 27.3935 9.27458 26.3981 11.2901 26.3981C13.2869 26.3981 13.8719 27.4628 15.6127 27.4226C17.4043 27.3935 18.5331 25.8201 19.6097 24.2097C20.4113 23.0729 21.0282 21.8166 21.4374 20.4871C20.3966 20.0469 19.5083 19.31 18.8834 18.3683C18.2585 17.4266 17.9247 16.3218 17.9235 15.1917ZM14.6354 5.45376C15.6122 4.28108 16.0935 2.77381 15.9769 1.25203C14.4845 1.40877 13.1059 2.12205 12.1159 3.24974C11.6318 3.80064 11.2611 4.44155 11.0248 5.13583C10.7886 5.83011 10.6915 6.56414 10.7392 7.29595C11.4857 7.30364 12.2242 7.14185 12.899 6.82275C13.5739 6.50365 14.1676 6.03557 14.6354 5.45376ZM39.029 23.424H33.3312L31.963 27.4642H29.5495L34.9464 12.5163H37.4538L42.8506 27.4642H40.396L39.029 23.424ZM33.9213 21.5595H38.4377L36.2113 15.0026H36.1489L33.9213 21.5595ZM54.5058 22.0158C54.5058 25.4023 52.6931 27.5782 49.9578 27.5782C49.2648 27.6145 48.5757 27.4548 47.9692 27.1176C47.3628 26.7804 46.8635 26.2792 46.5287 25.6715H46.4769V31.0695H44.2399V16.566H46.4053V18.3787H46.4465C46.7967 17.7739 47.3043 17.2753 47.9154 16.936C48.5264 16.5967 49.218 16.4295 49.9166 16.452C52.6825 16.452 54.5058 18.6386 54.5058 22.0158ZM52.2064 22.0158C52.2064 19.8093 51.0663 18.3587 49.3265 18.3587C47.6172 18.3587 46.4677 19.8398 46.4677 22.0156C46.4677 24.2116 47.6172 25.6822 49.3265 25.6822C51.0663 25.6822 52.2064 24.2423 52.2064 22.0158ZM66.5007 22.0158C66.5007 25.4023 64.6882 27.5782 61.9527 27.5782C61.2598 27.6144 60.5706 27.4548 59.9642 27.1176C59.3578 26.7804 58.8586 26.2792 58.5237 25.6715H58.472V31.0695H56.235V16.566H58.4002V18.3787H58.4414C58.7916 17.7739 59.2993 17.2753 59.9103 16.936C60.5214 16.5967 61.213 16.4295 61.9115 16.452C64.6776 16.452 66.5007 18.6386 66.5007 22.0158ZM64.2015 22.0158C64.2015 19.8093 63.0612 18.3587 61.3214 18.3587C59.6121 18.3587 58.4626 19.8398 58.4626 22.0156C58.4626 24.2116 59.6121 25.6822 61.3214 25.6822C63.0612 25.6822 64.2015 24.2423 64.2015 22.0158ZM74.4285 23.2994C74.5942 24.7817 76.0343 25.755 78.002 25.755C79.8875 25.755 81.2441 24.7817 81.2441 23.4451C81.2441 22.2848 80.426 21.5901 78.4888 21.114L76.5514 20.6474C73.8066 19.9843 72.5324 18.7007 72.5324 16.6176C72.5324 14.0385 74.78 12.2671 77.9714 12.2671C81.13 12.2671 83.2954 14.0385 83.3682 16.6176H81.11C80.9749 15.126 79.7418 14.2255 77.9397 14.2255C76.1377 14.2255 74.9046 15.1366 74.9046 16.4625C74.9046 17.5193 75.6922 18.1412 77.6187 18.6171L79.2657 19.0216C82.3325 19.7468 83.6069 20.9789 83.6069 23.1652C83.6069 25.9618 81.3793 27.7134 77.8362 27.7134C74.5212 27.7134 72.2831 26.0029 72.1385 23.2993L74.4285 23.2994ZM88.4347 13.987V16.566H90.5072V18.3375H88.4347V24.3456C88.4347 25.2789 88.8497 25.7139 89.7608 25.7139C90.0068 25.7096 90.2524 25.6923 90.4966 25.6621V27.4232C90.087 27.4996 89.6707 27.5342 89.2541 27.5264C87.0477 27.5264 86.1871 26.6978 86.1871 24.5842V18.3375H84.6025V16.566H86.1871V13.987H88.4347ZM91.7074 22.0158C91.7074 18.5867 93.7269 16.432 96.8762 16.432C100.036 16.432 102.046 18.5867 102.046 22.0158C102.046 25.4541 100.047 27.5994 96.8761 27.5994C93.7069 27.5994 91.7074 25.4541 91.7074 22.0158ZM99.7668 22.0158C99.7668 19.6636 98.6888 18.2752 96.8761 18.2752C95.0635 18.2752 93.9867 19.674 93.9867 22.0158C93.9867 24.3774 95.0635 25.755 96.8761 25.755C98.6888 25.755 99.7668 24.3774 99.7668 22.0158ZM103.89 16.566H106.024V18.4209H106.076C106.22 17.8416 106.56 17.3296 107.037 16.971C107.514 16.6125 108.101 16.4292 108.697 16.452C108.955 16.4511 109.212 16.4791 109.464 16.5354V18.6279C109.138 18.5284 108.799 18.4828 108.459 18.4927C108.134 18.4795 107.81 18.5368 107.509 18.6606C107.208 18.7845 106.938 18.9719 106.716 19.2102C106.495 19.4484 106.327 19.7317 106.226 20.0406C106.124 20.3496 106.091 20.6769 106.128 21.0001V27.4642H103.89V16.566ZM119.778 24.2632C119.477 26.2417 117.55 27.5994 115.085 27.5994C111.915 27.5994 109.947 25.4753 109.947 22.0674C109.947 18.649 111.925 16.432 114.991 16.432C118.006 16.432 119.902 18.5033 119.902 21.8076V22.5741H112.205V22.7092C112.169 23.1103 112.22 23.5144 112.352 23.8946C112.485 24.2747 112.697 24.6224 112.974 24.9143C113.251 25.2063 113.588 25.4359 113.96 25.588C114.333 25.74 114.734 25.811 115.137 25.7962C115.665 25.8457 116.196 25.7233 116.649 25.4471C117.103 25.1709 117.455 24.7557 117.653 24.2632H119.778ZM112.215 21.0106H117.664C117.684 20.65 117.629 20.2891 117.503 19.9506C117.377 19.6121 117.183 19.3033 116.932 19.0436C116.681 18.7838 116.379 18.5788 116.045 18.4413C115.711 18.3038 115.352 18.2368 114.991 18.2446C114.627 18.2424 114.265 18.3124 113.928 18.4506C113.591 18.5887 113.285 18.7922 113.027 19.0494C112.769 19.3065 112.564 19.6122 112.425 19.9489C112.286 20.2855 112.215 20.6464 112.215 21.0106ZM33.641 1.26491C34.11 1.23124 34.5806 1.30209 35.0189 1.47234C35.4572 1.64259 35.8522 1.908 36.1755 2.24941C36.4988 2.59083 36.7423 2.99975 36.8885 3.44667C37.0346 3.89359 37.0797 4.36738 37.0205 4.83384C37.0205 7.12839 35.7803 8.44744 33.641 8.44744H31.0466V1.26478L33.641 1.26491ZM32.1622 7.43161H33.5164C33.8515 7.45163 34.1869 7.39667 34.4981 7.27073C34.8092 7.1448 35.0885 6.95106 35.3153 6.70361C35.5422 6.45617 35.7111 6.16125 35.8096 5.84033C35.9081 5.5194 35.9339 5.18054 35.8849 4.84841C35.9303 4.51759 35.902 4.18083 35.802 3.86225C35.7019 3.54367 35.5326 3.25116 35.3063 3.00569C35.0799 2.76021 34.802 2.56784 34.4926 2.44236C34.1831 2.31688 33.8498 2.2614 33.5164 2.27989H32.1622V7.43161ZM38.2807 5.73483C38.2466 5.37863 38.2874 5.01923 38.4003 4.6797C38.5133 4.34016 38.696 4.02798 38.9366 3.76317C39.1773 3.49837 39.4707 3.28679 39.7979 3.14201C40.1251 2.99723 40.479 2.92244 40.8369 2.92244C41.1947 2.92244 41.5486 2.99723 41.8758 3.14201C42.203 3.28679 42.4964 3.49837 42.7371 3.76317C42.9777 4.02798 43.1604 4.34016 43.2734 4.6797C43.3863 5.01923 43.4271 5.37863 43.393 5.73483C43.4278 6.09146 43.3876 6.45142 43.275 6.79158C43.1624 7.13175 42.9798 7.44458 42.7391 7.70998C42.4984 7.97538 42.2047 8.18746 41.8771 8.3326C41.5495 8.47773 41.1952 8.55271 40.8369 8.55271C40.4785 8.55271 40.1242 8.47773 39.7966 8.3326C39.469 8.18746 39.1754 7.97538 38.9346 7.70998C38.6939 7.44458 38.5113 7.13175 38.3987 6.79158C38.2861 6.45142 38.2459 6.09146 38.2807 5.73483ZM42.2928 5.73483C42.2928 4.55987 41.7649 3.87279 40.8387 3.87279C39.9088 3.87279 39.3858 4.55987 39.3858 5.73483C39.3858 6.91918 39.9089 7.60098 40.8387 7.60098C41.7649 7.60098 42.2928 6.91449 42.2928 5.73483ZM50.1888 8.44732H49.0789L47.9587 4.45527H47.8741L46.7586 8.44732H45.6595L44.1654 3.02692H45.2503L46.2214 7.16294H46.3013L47.4157 3.02692H48.4419L49.5563 7.16294H49.6409L50.6072 3.02692H51.6769L50.1888 8.44732ZM52.9335 3.02704H53.9633V3.88807H54.0432C54.1788 3.57879 54.4075 3.31952 54.6975 3.1464C54.9874 2.97329 55.3242 2.89495 55.6608 2.92232C55.9245 2.9025 56.1893 2.94227 56.4356 3.03869C56.6819 3.1351 56.9033 3.28569 57.0835 3.4793C57.2637 3.67291 57.398 3.90458 57.4765 4.15714C57.555 4.40971 57.5756 4.6767 57.5369 4.93833V8.4472H56.4672V5.207C56.4672 4.33598 56.0886 3.90276 55.2975 3.90276C55.1184 3.89443 54.9397 3.92492 54.7735 3.99212C54.6073 4.05933 54.4577 4.16167 54.3347 4.29214C54.2118 4.4226 54.1185 4.57809 54.0613 4.74797C54.0041 4.91785 53.9843 5.09809 54.0032 5.27633V8.44732H52.9335V3.02704ZM59.2414 0.911009H60.311V8.44732H59.2414V0.911009ZM61.7981 5.73483C61.764 5.37858 61.8048 5.01914 61.9177 4.67955C62.0307 4.33997 62.2134 4.02774 62.4541 3.76291C62.6948 3.49807 62.9882 3.28646 63.3155 3.14166C63.6428 2.99686 63.9967 2.92206 64.3546 2.92206C64.7125 2.92206 65.0664 2.99686 65.3937 3.14166C65.721 3.28646 66.0144 3.49807 66.2551 3.76291C66.4958 4.02774 66.6785 4.33997 66.7915 4.67955C66.9044 5.01914 66.9452 5.37858 66.9111 5.73483C66.9457 6.0914 66.9054 6.45127 66.7927 6.79133C66.68 7.13138 66.4974 7.4441 66.2566 7.70938C66.0158 7.97467 65.7223 8.18665 65.3947 8.33172C65.0671 8.47679 64.7128 8.55173 64.3546 8.55173C63.9964 8.55173 63.6421 8.47679 63.3145 8.33172C62.9869 8.18665 62.6934 7.97467 62.4526 7.70938C62.2118 7.4441 62.0292 7.13138 61.9165 6.79133C61.8038 6.45127 61.7635 6.0914 61.7981 5.73483ZM65.8101 5.73483C65.8101 4.55987 65.2823 3.87279 64.356 3.87279C63.4262 3.87279 62.9031 4.55987 62.9031 5.73483C62.9031 6.91918 63.4263 7.60098 64.356 7.60098C65.2823 7.60098 65.8101 6.91449 65.8101 5.73483ZM68.0372 6.91449C68.0372 5.93875 68.7636 5.37624 70.0532 5.29632L71.5214 5.21169V4.7438C71.5214 4.17131 71.1429 3.84811 70.4118 3.84811C69.8146 3.84811 69.4007 4.06731 69.2821 4.45058H68.2464C68.3557 3.51949 69.2315 2.92244 70.4611 2.92244C71.82 2.92244 72.5864 3.59894 72.5864 4.7438V8.44732H71.5566V7.6856H71.472C71.3002 7.95883 71.059 8.18157 70.773 8.33109C70.487 8.48061 70.1664 8.55154 69.844 8.53664C69.6164 8.5603 69.3865 8.53602 69.1689 8.46536C68.9513 8.39471 68.7509 8.27924 68.5807 8.12641C68.4105 7.97358 68.2741 7.78677 68.1805 7.57804C68.0869 7.3693 68.0381 7.14326 68.0372 6.91449ZM71.5214 6.45129V5.99809L70.1977 6.08271C69.4513 6.13267 69.1127 6.38665 69.1127 6.86442C69.1127 7.35229 69.5359 7.63625 70.1178 7.63625C70.2883 7.65351 70.4606 7.6363 70.6243 7.58563C70.788 7.53496 70.9399 7.45188 71.0708 7.34132C71.2018 7.23077 71.3091 7.095 71.3865 6.9421C71.4639 6.78919 71.5098 6.62228 71.5214 6.45129ZM73.9924 5.73483C73.9924 4.02205 74.8728 2.93713 76.2423 2.93713C76.581 2.92151 76.9172 3.00264 77.2116 3.17104C77.5059 3.33943 77.7463 3.58813 77.9045 3.88807H77.9844V0.910889H79.0541V8.4472H78.0291V7.59075H77.9445C77.774 7.88866 77.5253 8.13428 77.2253 8.30098C76.9253 8.46769 76.5854 8.54914 76.2424 8.53652C74.8634 8.53652 73.9924 7.45159 73.9924 5.73483ZM75.0974 5.73483C75.0974 6.8844 75.6393 7.5763 76.5455 7.5763C77.4471 7.5763 78.0044 6.87453 78.0044 5.73941C78.0044 4.60983 77.4413 3.89806 76.5455 3.89806C75.6451 3.89806 75.0974 4.59454 75.0974 5.73483ZM83.4799 5.73483C83.4459 5.37863 83.4866 5.01923 83.5995 4.6797C83.7125 4.34016 83.8952 4.02798 84.1358 3.76317C84.3765 3.49837 84.6699 3.28679 84.9971 3.14201C85.3243 2.99723 85.6782 2.92244 86.0361 2.92244C86.3939 2.92244 86.7478 2.99723 87.075 3.14201C87.4022 3.28679 87.6956 3.49837 87.9363 3.76317C88.1769 4.02798 88.3596 4.34016 88.4726 4.6797C88.5855 5.01923 88.6263 5.37863 88.5922 5.73483C88.627 6.09146 88.5868 6.45142 88.4742 6.79158C88.3616 7.13175 88.179 7.44458 87.9383 7.70998C87.6976 7.97538 87.4039 8.18746 87.0763 8.3326C86.7487 8.47773 86.3944 8.55271 86.0361 8.55271C85.6777 8.55271 85.3234 8.47773 84.9958 8.3326C84.6682 8.18746 84.3746 7.97538 84.1338 7.70998C83.8931 7.44458 83.7105 7.13175 83.5979 6.79158C83.4853 6.45142 83.4451 6.09146 83.4799 5.73483ZM87.492 5.73483C87.492 4.55987 86.9641 3.87279 86.0379 3.87279C85.108 3.87279 84.585 4.55987 84.585 5.73483C84.585 6.91918 85.1081 7.60098 86.0379 7.60098C86.9641 7.60098 87.492 6.91449 87.492 5.73483ZM90.0275 3.02704H91.0573V3.88807H91.1372C91.2728 3.57879 91.5015 3.31952 91.7915 3.1464C92.0815 2.97329 92.4182 2.89495 92.7548 2.92232C93.0185 2.9025 93.2833 2.94227 93.5296 3.03869C93.7759 3.1351 93.9973 3.28569 94.1775 3.4793C94.3577 3.67291 94.492 3.90458 94.5705 4.15714C94.649 4.40971 94.6696 4.6767 94.6309 4.93833V8.4472H93.5612V5.207C93.5612 4.33598 93.1826 3.90276 92.3915 3.90276C92.2124 3.89443 92.0337 3.92492 91.8675 3.99212C91.7014 4.05933 91.5517 4.16167 91.4287 4.29214C91.3058 4.4226 91.2125 4.57809 91.1553 4.74797C91.0981 4.91785 91.0783 5.09809 91.0973 5.27633V8.44732H90.0276L90.0275 3.02704ZM100.675 1.67754V3.05172H101.85V3.95271H100.675V6.73983C100.675 7.30763 100.909 7.55632 101.442 7.55632C101.578 7.55584 101.714 7.54756 101.85 7.53152V8.42264C101.658 8.45701 101.463 8.47529 101.268 8.47729C100.078 8.47729 99.6045 8.05876 99.6045 7.0138V3.95271H98.7441V3.0516H99.6045V1.67766L100.675 1.67754ZM103.311 0.911009H104.371V3.89806H104.456C104.598 3.5859 104.833 3.32517 105.129 3.1514C105.425 2.97763 105.767 2.89928 106.109 2.92702C106.371 2.91273 106.633 2.95654 106.877 3.0553C107.12 3.15406 107.339 3.30535 107.517 3.49836C107.696 3.69138 107.829 3.92137 107.908 4.17192C107.987 4.42247 108.01 4.68741 107.975 4.94784V8.44732H106.905V5.21169C106.905 4.34585 106.501 3.90745 105.745 3.90745C105.562 3.89239 105.377 3.91767 105.204 3.98153C105.031 4.0454 104.874 4.14631 104.744 4.27719C104.614 4.40808 104.514 4.56579 104.451 4.73929C104.388 4.91279 104.364 5.09788 104.381 5.28163V8.44732H103.311V0.911009ZM114.213 6.9837C114.067 7.47911 113.753 7.90764 113.323 8.19433C112.894 8.48101 112.377 8.60759 111.864 8.55192C111.507 8.56135 111.152 8.49296 110.824 8.35149C110.496 8.21002 110.203 7.99887 109.964 7.73268C109.726 7.46649 109.549 7.15164 109.444 6.81C109.34 6.46835 109.311 6.10809 109.36 5.75421C109.313 5.39924 109.342 5.03819 109.446 4.69551C109.55 4.35282 109.727 4.0365 109.963 3.76797C110.2 3.49944 110.492 3.28497 110.819 3.13907C111.147 2.99317 111.501 2.91925 111.859 2.92232C113.367 2.92232 114.277 3.95271 114.277 5.65479V6.02806H110.45V6.08801C110.433 6.28692 110.458 6.48713 110.523 6.67582C110.588 6.8645 110.692 7.03748 110.828 7.18368C110.964 7.32988 111.129 7.44607 111.312 7.52479C111.496 7.60351 111.694 7.64303 111.893 7.64082C112.149 7.67155 112.409 7.62548 112.638 7.50847C112.868 7.39145 113.057 7.20879 113.183 6.9837H114.213ZM110.45 5.23697H113.188C113.201 5.05506 113.176 4.87233 113.115 4.70054C113.054 4.52875 112.957 4.37169 112.831 4.23945C112.706 4.10722 112.554 4.00273 112.385 3.9327C112.217 3.86267 112.036 3.82865 111.853 3.83282C111.668 3.83049 111.485 3.86523 111.313 3.93497C111.142 4.00472 110.986 4.10807 110.856 4.23894C110.725 4.3698 110.621 4.52552 110.552 4.69693C110.482 4.86834 110.447 5.05196 110.45 5.23697Z" fill="black"/>
</svg>
