<svg width="185" height="56" viewBox="0 0 185 56" fill="none" xmlns="http://www.w3.org/2000/svg">
<rect width="185" height="56" fill="white"/>
<path d="M26.3271 1.47373C22.627 1.7366 19.2574 2.62878 16.0313 4.20204C10.7499 6.77501 6.44438 11.0168 3.80768 16.2504C2.23841 19.3611 1.32632 22.643 1.0276 26.2675C0.967855 27.0242 0.967855 29.3543 1.03158 30.0911C1.34225 33.7594 2.20654 36.886 3.7798 40.0285C4.14623 40.7534 4.16614 40.7893 4.54452 41.4464C6.55191 44.9315 9.41564 47.9864 12.8051 50.2687C14.4222 51.36 16.4256 52.3955 18.2816 53.1045C20.7988 54.0684 23.5232 54.6578 26.3032 54.8411C27.1078 54.8968 28.9638 54.8968 29.7604 54.845C35.8145 54.4428 41.4822 52.0968 46.0227 48.1099C46.6241 47.5842 47.7592 46.461 48.2173 45.9432C48.3885 45.748 48.5638 45.5489 48.6076 45.5051C48.7789 45.3179 49.7547 44.0792 50.0056 43.7327C52.718 39.9728 54.3868 35.6632 54.9046 31.0868C55.0599 29.6888 55.1077 27.6655 55.0082 26.3472C54.4745 19.142 51.1646 12.602 45.6841 7.91812C44.541 6.9423 42.8881 5.77928 41.5817 5.03447C38.1564 3.07885 34.3766 1.89592 30.3897 1.53347C29.5732 1.4578 27.0719 1.42195 26.3271 1.47373ZM29.5732 2.07117C34.9382 2.40972 39.885 4.22195 44.1109 7.40034C45.7877 8.65894 47.5561 10.3796 48.8545 12.0126C51.7422 15.649 53.6102 19.9944 54.2474 24.5747C54.4585 26.1082 54.5422 28.1833 54.4506 29.6331C54.2873 32.1702 53.7934 34.5679 52.953 36.882C49.5675 46.21 41.1237 52.8456 31.1664 54.0086C30.0113 54.1401 29.3024 54.1799 27.98 54.1799C26.3311 54.1799 25.2039 54.0883 23.6347 53.8294C15.2068 52.4234 8.03356 47.15 4.26572 39.5904C0.62134 32.2777 0.657187 23.7264 4.36131 16.4296C7.73883 9.78213 13.8646 4.85126 21.1414 2.9275C22.8421 2.47743 24.6822 2.17871 26.4068 2.07515C27.1954 2.02736 28.8404 2.02736 29.5732 2.07117Z" fill="#030E1F"/>
<path d="M26.8051 2.49337C22.9337 2.7204 19.5522 3.60859 16.2105 5.28142C12.4387 7.16932 9.22844 9.90958 6.76699 13.3429C1.79629 20.2652 0.641234 29.2308 3.69216 37.1767C5.99032 43.159 10.4512 48.058 16.2304 50.9536C19.2415 52.4592 22.3084 53.3274 25.7895 53.658C26.5462 53.7297 29.5812 53.7297 30.3101 53.658C34.8467 53.2159 38.8973 51.794 42.5577 49.3684C44.6527 47.9784 46.5406 46.2856 48.1537 44.3499C50.4399 41.6137 52.1964 38.2561 53.1244 34.8507C54.1998 30.9195 54.3312 26.9724 53.5267 23.0214C52.3597 17.2979 49.1574 12.0404 44.569 8.32836C40.4586 4.99863 35.5955 3.047 30.2305 2.56904C29.5693 2.5093 27.3628 2.46151 26.8051 2.49337ZM29.8601 3.51698C29.872 3.52893 29.868 3.69621 29.8521 3.88739L29.8202 4.23391L29.2308 4.21001L28.6373 4.1901V4.65212C28.6373 4.90702 28.6253 5.18583 28.6134 5.26549L28.5855 5.41684H28.9838C29.2029 5.41684 29.4418 5.42879 29.5096 5.44073L29.633 5.46463V6.13376H28.6094L28.5855 6.61968C28.5696 6.88255 28.5576 7.17729 28.5576 7.2689V7.43618L29.1192 7.46008C29.5135 7.47999 29.6928 7.50389 29.7326 7.53974C29.7724 7.58355 29.7804 7.67117 29.7645 7.90218L29.7406 8.20887L28.7408 8.18099C28.1912 8.16506 27.7371 8.15311 27.7371 8.14912C27.7332 8.14912 27.7531 7.26491 27.7849 6.19351C27.8128 5.11812 27.8367 4.06264 27.8407 3.84756V3.45325L28.8404 3.47715C29.3901 3.4891 29.8481 3.50902 29.8601 3.51698ZM26.4865 3.54486C26.5303 3.56876 26.5821 3.62452 26.61 3.66833C26.6339 3.71214 26.7016 4.21001 26.7653 4.76762C26.8649 5.65581 26.8729 5.7992 26.8251 5.89479C26.7693 6.00233 26.6179 6.09393 26.4945 6.09393C26.3033 6.09792 26.3152 6.14571 26.7972 7.13746L27.2751 8.11726L27.0481 8.14514C26.9246 8.15709 26.7414 8.18099 26.6379 8.19294L26.4507 8.21683L25.9647 7.21314C25.666 6.59977 25.4549 6.21342 25.4191 6.21342C25.3792 6.21342 25.3713 6.24927 25.3872 6.36079C25.3992 6.44443 25.447 6.85069 25.4908 7.2689C25.5346 7.68312 25.5824 8.08938 25.5943 8.16904L25.6142 8.31641L25.3036 8.34429C25.1323 8.35624 24.9531 8.38013 24.9053 8.39208C24.8336 8.40801 24.8137 8.39208 24.7977 8.27658C24.7499 7.98582 24.2839 3.74003 24.2999 3.72808C24.3238 3.70418 25.9966 3.51698 26.2196 3.50902C26.3272 3.50902 26.4467 3.52495 26.4865 3.54486ZM32.0825 3.80375C32.5645 3.87943 33.0106 3.96307 33.0703 3.98697C33.3093 4.08654 33.3093 4.18611 33.0783 5.612C32.9508 6.39664 32.8751 6.73917 32.8234 6.81086C32.7238 6.94628 32.4848 6.95823 31.8635 6.85069C31.5249 6.79493 31.3656 6.779 31.3457 6.81086C31.3337 6.83078 31.27 7.18127 31.2063 7.58753C31.1465 7.98981 31.0828 8.3403 31.0669 8.3642C31.047 8.39607 30.9315 8.39208 30.6646 8.34429C30.4575 8.30844 30.2862 8.27658 30.2822 8.27259C30.2783 8.26463 30.9514 4.06264 31.0071 3.75197C31.0271 3.64443 31.047 3.6285 31.1187 3.64443C31.1665 3.65638 31.6006 3.72808 32.0825 3.80375ZM35.2131 4.55254C35.229 4.55652 35.1892 4.71982 35.1295 4.91897C34.1497 8.12523 34.0899 8.33632 34.1377 8.3642C34.1616 8.38013 34.3886 8.45581 34.6356 8.5275C34.9622 8.61911 35.0896 8.67487 35.1016 8.72665C35.1295 8.8302 34.9582 9.35993 34.8985 9.35993C34.8586 9.35993 33.134 8.84614 33.1101 8.82622C33.1022 8.81826 33.2894 8.18497 34.0342 5.73149L34.4643 4.31357L34.8268 4.42907C35.0259 4.48882 35.2012 4.54458 35.2131 4.55254ZM21.2569 4.56847C21.3167 4.63618 21.4401 4.91897 21.5676 5.2854L21.7787 5.89081L21.4043 6.01428C21.1932 6.08597 21.0219 6.13376 21.014 6.12978C21.01 6.12181 20.9462 5.94258 20.8745 5.73547C20.8029 5.52836 20.7312 5.34514 20.7152 5.32921C20.6874 5.29735 20.1536 5.46065 20.0421 5.52836C20.0063 5.55226 20.07 5.78327 20.313 6.4763C20.8546 8.0137 21.0777 8.64301 21.0936 8.64301C21.1534 8.64301 21.7866 8.3881 21.7866 8.3642C21.7866 8.34827 21.7229 8.15709 21.6472 7.94599C21.5676 7.73092 21.5118 7.53974 21.5198 7.51584C21.5397 7.44813 22.1491 7.24898 22.2208 7.28483C22.2566 7.30873 22.3721 7.58753 22.4996 7.96193C22.7346 8.65495 22.7386 8.72665 22.5315 8.86207C22.4159 8.93774 20.8825 9.47942 20.7829 9.47942C20.6754 9.47942 20.532 9.40375 20.4802 9.31612C20.3727 9.14486 19.1181 5.47658 19.1181 5.33718C19.1181 5.24159 19.146 5.16591 19.1977 5.11812C19.3013 5.02253 20.8507 4.4689 21.0259 4.46492C21.1215 4.46093 21.1852 4.48882 21.2569 4.56847ZM37.563 5.40091C37.7064 5.45667 37.8419 5.53234 37.8618 5.56819C37.8936 5.61997 37.7064 6.11385 37.0333 7.74685C36.5594 8.90588 36.1611 9.86975 36.1571 9.88568C36.1411 9.92551 35.4282 9.61882 35.4282 9.57103C35.4282 9.55111 35.8225 8.56733 36.3044 7.39237C37.0015 5.68768 37.1887 5.2615 37.2404 5.27743C37.2723 5.28938 37.4197 5.34514 37.563 5.40091ZM18.2179 6.21342C18.3573 6.50816 18.8074 7.44016 19.2137 8.28056C19.6199 9.12096 19.9545 9.81399 19.9545 9.82195C19.9545 9.82992 19.7952 9.91754 19.604 10.0131L19.2495 10.1884L19.138 9.96534C18.5445 8.76648 17.2102 5.95852 17.2302 5.9386C17.2899 5.87886 17.7957 5.66378 17.8714 5.66776C17.9431 5.67174 18.0068 5.76733 18.2179 6.21342ZM40.0285 6.61171C40.7972 7.02992 40.9446 7.14543 40.9446 7.32068C40.9446 7.40432 40.4069 8.47174 40.3113 8.5753C40.2953 8.59123 40.1281 8.51954 39.9369 8.412L39.5943 8.22082L39.8134 7.81854L40.0325 7.41228L39.8612 7.32466C39.7656 7.27686 39.6143 7.19721 39.5266 7.14144L39.3594 7.04585L38.5787 8.47572C38.1485 9.26036 37.798 9.91356 37.798 9.92949C37.798 9.95737 38.3716 10.276 38.4273 10.276C38.4512 10.276 38.5628 10.1008 38.6743 9.88568C38.7898 9.67458 38.8894 9.49137 38.8973 9.4834C38.9252 9.45154 39.5466 9.81797 39.5585 9.87373C39.5665 9.90958 39.435 10.1884 39.2638 10.4951C38.9411 11.0845 38.8217 11.212 38.6265 11.1761C38.4831 11.1483 37.1289 10.4114 36.9935 10.284C36.7784 10.0848 36.7943 10.041 37.7622 8.27658C38.8177 6.34884 38.8655 6.27317 38.969 6.21741C39.1204 6.14173 39.2837 6.20147 40.0285 6.61171ZM16.6048 6.66349C16.6965 6.81484 16.7681 6.94628 16.7602 6.95026C16.7522 6.95823 16.6088 7.04585 16.4376 7.14941L16.1269 7.33661L16.2265 7.49991C16.2782 7.59151 16.7363 8.35624 17.2381 9.19663C17.744 10.041 18.1502 10.742 18.1423 10.7579C18.1144 10.7978 17.4851 11.1642 17.4691 11.1483C17.4612 11.1403 17.0151 10.3875 16.4694 9.47942C15.9277 8.57131 15.4697 7.81058 15.4498 7.79066C15.4339 7.77075 15.2825 7.83846 15.1152 7.94201C14.9479 8.04158 14.7966 8.11726 14.7807 8.10531C14.7368 8.08141 14.4063 7.5238 14.4262 7.50787C14.5098 7.42423 16.3181 6.38071 16.3698 6.38469C16.4097 6.38867 16.5093 6.50418 16.6048 6.66349ZM13.7849 8.29251C13.8805 8.40801 13.9801 8.53149 14.008 8.56733C14.0518 8.62309 14.004 8.67487 13.6216 8.97757C13.3826 9.16875 13.1755 9.344 13.1596 9.36392C13.1437 9.39578 13.8367 10.3158 13.8805 10.3158C13.8885 10.3158 14.0757 10.1725 14.2947 9.9972L14.693 9.68255L14.9161 9.96136C15.0395 10.1167 15.1351 10.2481 15.1272 10.2521C14.6413 10.6265 14.3425 10.8894 14.3704 10.9292C14.8563 11.5625 15.1511 11.905 15.1869 11.8811C15.2148 11.8652 15.41 11.7138 15.6211 11.5426C15.8322 11.3713 16.0432 11.2319 16.0871 11.2319C16.1388 11.2319 16.2424 11.3235 16.3659 11.4749L16.561 11.7218L15.7804 12.3511L14.9957 12.9844L14.9121 12.8968C14.8643 12.845 14.2031 12.0245 13.4424 11.0726C12.4626 9.84983 12.0683 9.32807 12.0922 9.29222C12.132 9.2285 13.5499 8.08938 13.5898 8.0854C13.6017 8.0854 13.6893 8.18099 13.7849 8.29251ZM43.0675 8.62309C43.2109 8.73063 43.3303 8.8541 43.3343 8.89393C43.3343 8.94571 41.299 13.076 41.2393 13.1397C41.2234 13.1557 40.6936 12.7653 40.6339 12.6936C40.606 12.6618 40.6498 12.5463 40.7892 12.3073C40.8928 12.1201 40.9804 11.9488 40.9804 11.921C40.9844 11.8931 40.853 11.7736 40.6976 11.6541L40.4069 11.435L40.1042 11.7377C39.9369 11.901 39.7815 12.0325 39.7616 12.0245C39.674 11.9887 39.1562 11.5665 39.1642 11.5386C39.1841 11.4629 42.721 8.37615 42.7608 8.40005C42.7847 8.412 42.9241 8.51157 43.0675 8.62309ZM29.8322 9.34002C33.9545 9.75026 37.7064 11.3793 40.8131 14.1076C41.3468 14.5776 42.3227 15.5773 42.7807 16.1309C45.1744 19.0026 46.6481 22.4677 47.0584 26.1719C47.15 26.9724 47.1779 28.6293 47.1221 29.4379C46.8234 33.5522 45.2063 37.4396 42.5099 40.5064C41.9642 41.1278 40.9446 42.1275 40.375 42.5975C38.519 44.1349 36.3602 45.3337 34.082 46.0865C30.6248 47.2296 26.8649 47.377 23.3161 46.5007C16.7881 44.8916 11.5784 40.0205 9.62674 33.6956C9.0532 31.8435 8.7943 30.111 8.7943 28.1593C8.7943 26.7972 8.88193 25.8612 9.12489 24.6145C10.5826 17.0709 16.5172 11.1602 24.1764 9.62281C25.0407 9.45154 26.1639 9.31612 27.1437 9.26434C27.6894 9.23646 29.2268 9.28027 29.8322 9.34002ZM11.678 10.7062C11.9727 10.985 12.7294 11.6939 13.3548 12.2834L14.4979 13.3508L14.2748 13.6057C14.1514 13.7451 14.0398 13.8606 14.0279 13.8606C14.012 13.8606 12.7653 13.3548 11.8811 12.9884C11.7218 12.9247 11.5903 12.8769 11.5903 12.8848C11.5903 12.8928 11.9846 13.2672 12.4666 13.7212C12.9485 14.1713 13.3428 14.5537 13.3428 14.5696C13.3388 14.5855 13.2273 14.721 13.0879 14.8723L12.837 15.1511L11.208 13.6217C10.3118 12.7852 9.53911 12.0604 9.48734 12.0126L9.39573 11.9249L9.62276 11.674C9.80995 11.4709 9.86571 11.4311 9.94139 11.447C9.98919 11.4589 10.5189 11.67 11.1164 11.909C11.7138 12.152 12.2156 12.3431 12.2316 12.3392C12.2475 12.3312 11.8771 11.9688 11.4071 11.5306C10.9371 11.0925 10.5548 10.7261 10.5548 10.7141C10.5548 10.6544 10.9969 10.2123 11.0606 10.2083C11.1084 10.2043 11.3394 10.3955 11.678 10.7062ZM45.1466 10.4353L45.3776 10.6703L44.8757 11.7776C44.6009 12.387 44.3619 12.9207 44.346 12.9645C44.3301 13.0083 44.7045 12.6618 45.1784 12.1918L46.0348 11.3394L46.2697 11.5904C46.4012 11.7338 46.5008 11.8771 46.5008 11.9289C46.5008 11.9887 46.0188 12.4865 44.8678 13.6137L43.2348 15.2109L42.9838 14.9639L42.7329 14.713L43.2746 13.542C43.5693 12.9008 43.8083 12.367 43.8003 12.3631C43.7924 12.3551 43.402 12.7255 42.9241 13.1875L42.0598 14.0239L41.8128 13.7571C41.6734 13.6137 41.5579 13.4783 41.55 13.4623C41.538 13.4305 44.8399 10.1963 44.8837 10.1963C44.8996 10.1963 45.0151 10.3039 45.1466 10.4353ZM47.9705 13.7372C48.4126 14.3545 48.5759 14.6094 48.5599 14.6612C48.5321 14.7289 48.1019 15.0555 48.0422 15.0555C48.0262 15.0515 47.9267 14.9281 47.8191 14.7767C47.7116 14.6214 47.608 14.4979 47.5881 14.4979C47.5682 14.4979 47.1699 14.7727 46.7079 15.1073C44.6766 16.577 44.4097 16.7682 44.3739 16.7682C44.3579 16.7682 44.2942 16.7005 44.2384 16.6168C44.1827 16.5372 44.0831 16.3978 44.0154 16.3062L43.8959 16.1429L44.8 15.4936C45.2979 15.1312 46.0228 14.6094 46.4131 14.3266L47.1181 13.8168L46.903 13.5062L46.684 13.1955L46.9707 12.9924C47.1978 12.8291 47.2655 12.7972 47.3053 12.837C47.3332 12.8609 47.6319 13.2672 47.9705 13.7372ZM8.95362 13.0561C9.09303 13.1557 9.19658 13.2552 9.18862 13.2831C9.17667 13.307 9.0293 13.5221 8.86201 13.7571C8.69473 13.9961 8.56728 14.2072 8.57524 14.235C8.59516 14.2868 9.45946 14.8962 9.51123 14.8962C9.53115 14.8962 9.66657 14.7249 9.81394 14.5178C9.9613 14.3107 10.0967 14.1315 10.1166 14.1195C10.1366 14.1076 10.2799 14.1872 10.4313 14.2988L10.7101 14.5019L10.4114 14.9201C10.2441 15.1511 10.1166 15.3463 10.1246 15.3542C10.1843 15.41 11.1721 16.0911 11.188 16.0911C11.2 16.0911 11.3553 15.884 11.5266 15.633C11.7257 15.3463 11.8691 15.175 11.9129 15.175C12.0205 15.175 12.4706 15.5016 12.4506 15.5613C12.4307 15.6131 11.4191 17.0629 11.3474 17.1426C11.3235 17.1665 7.70298 14.6692 7.5118 14.4939C7.4879 14.474 7.5357 14.3744 7.62332 14.251C7.70696 14.1355 7.96187 13.769 8.19686 13.4345C8.43186 13.0999 8.63897 12.841 8.66287 12.8569C8.68278 12.8689 8.81422 12.9605 8.95362 13.0561ZM7.61536 15.9477L8.12119 16.2145L7.94594 16.573L7.76671 16.9275L7.40426 16.7443C7.20511 16.6447 7.03783 16.569 7.02986 16.577C6.998 16.6128 6.68733 17.2541 6.69928 17.2621C6.76301 17.3099 9.56301 18.7198 9.59487 18.7198C9.6347 18.7198 9.97724 18.0865 9.94936 18.0626C9.94139 18.0586 9.71038 17.9352 9.43157 17.7878L8.92176 17.5209L8.81422 17.74C8.75448 17.8635 8.69075 17.9631 8.66685 17.9631C8.63499 17.9631 8.13314 17.7002 8.09331 17.6643C8.05746 17.6285 8.62702 16.573 8.69075 16.5571C8.77837 16.5332 10.6703 17.4931 10.7659 17.6086C10.8017 17.6564 10.8336 17.748 10.8336 17.8157C10.8336 17.9471 10.0888 19.4367 9.95334 19.5761C9.85377 19.6797 9.61081 19.6757 9.43157 19.5682C9.35988 19.5244 8.56728 19.1141 7.66713 18.6561C6.77097 18.202 5.98633 17.7798 5.92659 17.7201C5.85888 17.6564 5.81507 17.5687 5.81507 17.505C5.81507 17.3537 6.59572 15.8322 6.72318 15.7286C6.88249 15.6052 7.03385 15.645 7.61536 15.9477ZM49.2291 15.7446C49.2769 15.7924 49.4919 16.1548 49.711 16.5491C50.1252 17.3099 50.177 17.4732 50.0376 17.6365C49.9341 17.7559 48.9104 18.2976 48.8706 18.2578C48.8188 18.202 48.5002 17.6006 48.5161 17.5887C48.5241 17.5807 48.6874 17.4931 48.8826 17.3895C49.0737 17.286 49.2291 17.1824 49.2291 17.1625C49.2291 17.0908 48.9304 16.569 48.8905 16.573C48.8706 16.573 48.7193 16.6487 48.556 16.7403L48.2612 16.9076L48.0103 17.8475C47.7554 18.8154 47.7195 18.911 47.5801 19.0026C47.2894 19.1858 46.4012 19.6478 46.2937 19.6638C46.0985 19.6956 45.9551 19.5204 45.5369 18.7397C45.1227 17.9591 45.1027 17.9153 45.1665 17.7679C45.2143 17.6484 45.2063 17.6564 45.9272 17.2581L46.4331 16.9793L46.6163 17.3138C46.7158 17.4971 46.7995 17.6603 46.7995 17.6763C46.7995 17.6922 46.6203 17.7998 46.3972 17.9153L45.9989 18.1264L46.1702 18.445C46.2618 18.6163 46.3454 18.7596 46.3574 18.7557C46.3693 18.7557 46.5326 18.668 46.7198 18.5645L47.0584 18.3733L47.2973 17.4811C47.4288 16.9912 47.5602 16.5332 47.5881 16.4695C47.6479 16.3221 47.8151 16.2185 48.7312 15.7366C48.9423 15.6251 49.1175 15.6291 49.2291 15.7446ZM6.97809 19.8709C7.59544 20.1059 7.94992 20.6436 7.92204 21.3007C7.8623 22.5593 6.24921 23.1488 5.32118 22.2447C4.76756 21.707 4.73171 20.8467 5.23754 20.2811C5.42076 20.078 5.77524 19.8629 6.03811 19.7952C6.26514 19.7394 6.71919 19.7753 6.97809 19.8709ZM50.2328 20.0501C51.1807 20.5241 51.3639 21.719 50.6032 22.4199C50.2925 22.7027 50.0217 22.7983 49.5477 22.8023C49.2052 22.8023 49.1454 22.7904 48.9065 22.6788C48.552 22.5076 48.3409 22.3084 48.1855 21.9938C48.0103 21.6393 47.9824 21.2052 48.1138 20.8626C48.2134 20.5918 48.5281 20.2254 48.7631 20.1059C49.0976 19.9386 49.1972 19.9147 49.6075 19.9266C49.95 19.9386 50.0376 19.9545 50.2328 20.0501ZM5.77524 24.1565C6.68335 24.2561 7.45206 24.3357 7.47994 24.3357C7.5118 24.3357 7.52375 24.3716 7.5118 24.4234C7.49985 24.4751 7.47197 24.7221 7.44807 24.977L7.40028 25.435L6.14167 25.6262C5.44465 25.7298 4.87111 25.8214 4.86713 25.8293C4.83925 25.8532 4.99857 25.917 6.09387 26.3272C6.6953 26.5542 7.20511 26.7494 7.22105 26.7653C7.24494 26.7852 7.14537 27.8447 7.11749 27.8606C7.11351 27.8646 6.297 27.777 5.30127 27.6655L3.49302 27.4663L3.51691 27.1477C3.53285 26.9764 3.54878 26.8251 3.56073 26.8171C3.57268 26.8051 4.76357 26.9246 6.14167 27.08C6.28904 27.0959 6.40056 27.0999 6.38861 27.0879C6.37666 27.076 5.75532 26.837 5.00653 26.5622L3.64437 26.0564L3.65632 25.8652C3.66428 25.7576 3.6842 25.5983 3.70013 25.5107L3.72403 25.3514L5.19771 25.1522C6.25319 25.0128 6.63555 24.9451 6.55191 24.9252C6.4842 24.9093 5.91464 24.8416 5.27737 24.7739C3.72801 24.6106 3.7758 24.6185 3.7997 24.5389C3.80767 24.503 3.82758 24.3556 3.84351 24.2083L3.86741 23.9414L3.99487 23.9613C4.06656 23.9733 4.86713 24.0609 5.77524 24.1565ZM52.1167 24.4194C52.1326 24.6185 52.1287 24.7938 52.1127 24.8137C52.0928 24.8296 51.583 25.208 50.9816 25.6541C50.0934 26.3152 49.9062 26.4706 49.9858 26.4785C50.0416 26.4825 50.5793 26.4427 51.1807 26.3909C51.7821 26.3352 52.276 26.2953 52.28 26.2993C52.284 26.3033 52.2999 26.4547 52.3119 26.6339C52.3397 26.9366 52.3358 26.9645 52.2681 26.9645C52.2282 26.9645 51.4077 27.0362 50.4439 27.1198C49.48 27.2074 48.6914 27.2751 48.6874 27.2712C48.6834 27.2672 48.6715 27.1078 48.6555 26.9167L48.6277 26.5702L49.3366 26.0444C49.7269 25.7537 50.2487 25.3673 50.4956 25.1801C50.7466 24.9969 50.9417 24.8416 50.9338 24.8336C50.9298 24.8296 50.4638 24.8655 49.9062 24.9133C49.3486 24.965 48.8029 25.0128 48.6914 25.0168L48.4922 25.0288L48.4644 24.7141C48.4524 24.5389 48.4444 24.3915 48.4524 24.3835C48.4604 24.3756 51.7662 24.0729 51.9813 24.0609C52.0888 24.0569 52.0888 24.0609 52.1167 24.4194ZM52.3875 28.3864C52.3756 28.5815 52.3477 28.7568 52.3198 28.7807C52.2959 28.8046 52.1008 28.8763 51.8897 28.936C51.4356 29.0674 51.4874 28.9639 51.4157 29.9078C51.3918 30.2424 51.3878 30.5332 51.4077 30.5491C51.4237 30.569 51.6029 30.6527 51.7981 30.7443L52.1565 30.9036L52.1446 31.274C52.1406 31.4771 52.1286 31.6484 52.1207 31.6564C52.1127 31.6643 51.3201 31.2939 50.3602 30.8359L48.6117 29.9995L48.6197 29.6091C48.6276 29.398 48.6356 29.2188 48.6396 29.2148C48.6595 29.1989 52.3158 28.0478 52.3597 28.0438C52.3915 28.0399 52.3995 28.1394 52.3875 28.3864ZM6.50412 28.8484C7.04978 29.1192 7.32062 29.5175 7.42019 30.1986C7.49985 30.7642 7.36443 31.2501 7.00597 31.6404C6.6236 32.0586 6.10184 32.2379 5.33712 32.214C4.92289 32.202 4.85518 32.1901 4.61222 32.0746C4.06656 31.8197 3.75987 31.3815 3.6603 30.7283C3.57268 30.1189 3.70411 29.637 4.07054 29.2467C4.46884 28.8285 4.93484 28.6731 5.71948 28.6891C6.18946 28.701 6.21336 28.705 6.50412 28.8484ZM50.2248 32.3454C51.1329 32.6123 51.8897 32.8433 51.9056 32.8552C51.9295 32.8751 51.7981 33.4407 51.7622 33.4845C51.7582 33.4885 51.1449 33.3132 50.404 33.0982C49.6592 32.8791 49.0339 32.6999 49.01 32.6999C48.9901 32.6999 49.5198 33.0225 50.185 33.4128C50.8541 33.8071 51.4316 34.1497 51.4715 34.1815C51.5392 34.2293 51.5392 34.2453 51.4555 34.532C51.4077 34.6953 51.356 34.8467 51.34 34.8626C51.3241 34.8785 50.7267 34.8666 50.0057 34.8307C48.6356 34.767 48.3688 34.7591 48.3966 34.7869C48.4046 34.7949 49.006 34.9781 49.7269 35.1892C50.4518 35.4043 51.0612 35.5875 51.0851 35.6034C51.1488 35.6393 50.9696 36.2248 50.8979 36.2208C50.8661 36.2168 50.189 36.0256 49.3884 35.7866C48.5878 35.5517 47.835 35.3326 47.7156 35.2967C47.5961 35.2649 47.4806 35.2251 47.4646 35.2091C47.4447 35.1932 47.5005 34.9502 47.5801 34.6714L47.7315 34.1656L49.0299 34.1935C50.1451 34.2174 50.3124 34.2134 50.2447 34.1656C50.2009 34.1337 49.707 33.831 49.1494 33.4965C48.5918 33.1619 48.1298 32.8831 48.1218 32.8791C48.1099 32.8672 48.3887 31.9033 48.4205 31.8515C48.4325 31.8356 48.4683 31.8276 48.5042 31.8396C48.544 31.8515 49.3167 32.0785 50.2248 32.3454ZM7.95391 33.3969C8.34822 34.7152 8.38805 34.9701 8.24864 35.2689C8.08136 35.6433 7.6751 35.8663 7.21308 35.8384C6.86656 35.8185 6.65148 35.6871 6.46429 35.3764L6.34082 35.1653L6.27709 35.3565C6.24124 35.46 6.16158 35.6233 6.10184 35.715C5.99032 35.8862 5.16585 36.8421 5.14992 36.8262C5.14195 36.8182 5.08619 36.639 5.01848 36.4199C4.92289 36.1013 4.91094 36.0137 4.95077 35.9579C4.97865 35.9221 5.2017 35.6433 5.45262 35.3406C5.70355 35.0379 5.93456 34.7312 5.96642 34.6515C6.02616 34.5002 6.01023 34.2572 5.92659 34.062L5.87481 33.9465L5.16187 34.1616C4.76756 34.2771 4.43299 34.3608 4.41706 34.3448C4.36528 34.2891 4.22189 33.7195 4.25376 33.6916C4.26969 33.6757 4.71976 33.5363 5.25746 33.377C5.79515 33.2177 6.54793 32.9946 6.93029 32.8791C7.31265 32.7596 7.6512 32.668 7.68307 32.672C7.71891 32.676 7.8145 32.9349 7.95391 33.3969ZM48.2493 36.5593C49.4083 37.1687 49.5835 37.2763 49.7946 37.5113C49.9858 37.7223 50.0376 37.9016 50.0177 38.276C50.0018 38.5388 49.9739 38.6344 49.8345 38.9172C49.5198 39.5465 49.1892 39.8253 48.7193 39.8572C48.4962 39.8731 48.4046 39.8572 48.1736 39.7736C47.9665 39.6939 45.8914 38.6424 45.8117 38.5707C45.8037 38.5667 45.8715 38.4154 45.9631 38.2401L46.1303 37.9175L46.5366 38.1326C47.624 38.7141 48.4285 39.1084 48.5599 39.1323C49.0459 39.2199 49.5397 38.4711 49.2848 38.041C49.1932 37.8896 49.002 37.7741 47.8749 37.1847C47.3372 36.9019 46.8831 36.6589 46.8632 36.639C46.8274 36.6071 47.1141 36.0057 47.1659 36.0057C47.1818 36.0057 47.6678 36.2566 48.2493 36.5593ZM10.0768 38.6145C10.0768 38.6384 9.96529 38.7141 9.82588 38.7818L9.57496 38.9053L9.14082 38.033C8.89786 37.5551 8.69075 37.1608 8.67083 37.1608C8.60312 37.1608 7.96585 37.4794 7.96585 37.5113C7.96585 37.5312 8.13712 37.8976 8.34423 38.3238C8.55135 38.7499 8.72261 39.1164 8.72261 39.1363C8.72261 39.1602 8.61109 39.2319 8.47169 39.2996L8.22076 39.4231L7.80654 38.5946L7.39231 37.7662L6.95419 37.9852C6.71123 38.1047 6.5081 38.2083 6.50013 38.2162C6.49217 38.2202 6.68733 38.6344 6.92631 39.1323C7.16927 39.6302 7.36045 40.0484 7.35248 40.0643C7.3246 40.1041 6.85461 40.3232 6.8347 40.3033C6.82673 40.2953 6.54793 39.7337 6.21734 39.0606L5.6199 37.8299L7.26087 37.0214L8.90184 36.2128L9.49132 37.3918C9.81394 38.037 10.0768 38.5906 10.0768 38.6145ZM46.8592 40.4307C47.6478 41.0441 48.2891 41.5619 48.2851 41.5738C48.2811 41.5898 48.1816 41.7212 48.07 41.8686L47.8589 42.1354L47.6001 41.9283C47.4567 41.8168 47.1699 41.5898 46.9628 41.4305C46.7597 41.2672 46.5804 41.1516 46.5605 41.1716C46.5446 41.1875 46.3375 41.4504 46.1025 41.7531L45.6763 42.3027L45.7878 42.3903C45.8515 42.4381 46.1264 42.6532 46.4012 42.8683C46.676 43.0834 46.907 43.2785 46.911 43.2984C46.923 43.3303 46.5366 43.8521 46.4968 43.8521C46.4808 43.8521 43.7486 41.7252 43.6609 41.6455C43.6211 41.6057 43.649 41.542 43.8163 41.3309C43.9278 41.1835 44.0353 41.064 44.0552 41.064C44.0752 41.064 44.334 41.2552 44.6288 41.4862C44.9275 41.7172 45.1824 41.9004 45.2023 41.8925C45.2461 41.8765 46.0786 40.8171 46.0826 40.7773C46.0826 40.7494 46.0109 40.6896 45.3537 40.1718L44.9673 39.8652L45.1744 39.5903C45.2899 39.439 45.3935 39.3155 45.4055 39.3155C45.4174 39.3115 46.0706 39.8174 46.8592 40.4307ZM11.678 40.8171L11.901 41.0879L11.3474 41.5579L10.7937 42.0239L11.2 42.5098C11.427 42.7767 11.6381 43.0276 11.674 43.0714C11.7457 43.159 11.7178 43.179 12.7892 42.2709C12.845 42.2231 12.8808 42.2509 13.0799 42.4819C13.2034 42.6293 13.303 42.7607 13.295 42.7767C13.2751 42.8245 10.5388 45.1266 10.511 45.1186C10.499 45.1107 10.3875 44.9912 10.268 44.8478L10.0449 44.5849L10.6583 44.0711C10.9969 43.7844 11.2717 43.5494 11.2717 43.5414C11.2717 43.5295 10.7061 42.8563 10.3556 42.4501C10.3437 42.4302 10.0529 42.6532 9.71835 42.936L9.10099 43.4538L8.92972 43.2666C8.62304 42.924 8.61906 42.9121 8.74651 42.8006C8.81024 42.7488 9.43556 42.2191 10.1366 41.6256C10.8376 41.0322 11.4191 40.5462 11.431 40.5462C11.443 40.5462 11.5545 40.6697 11.678 40.8171ZM14.3784 43.645C14.4859 43.7366 14.5058 43.7764 14.474 43.8162C14.4501 43.8481 14.1275 44.2384 13.757 44.6885C12.8768 45.7599 12.825 45.8356 12.825 46.1024C12.825 46.2697 12.8489 46.3414 12.9445 46.4728C13.1795 46.7994 13.5937 46.9309 13.8686 46.7676C13.9681 46.7118 14.5178 46.0706 15.4259 44.9553L15.645 44.6885L15.9238 44.9235L16.2065 45.1545L15.6091 45.8873C14.3824 47.3889 14.1474 47.5881 13.6415 47.5442C13.311 47.5203 13.0481 47.3929 12.6817 47.0822C12.3391 46.7955 12.1679 46.5485 12.1041 46.2538C11.9966 45.728 12.0723 45.5966 13.2791 44.1229L13.9562 43.2984L14.0956 43.414C14.1753 43.4777 14.3027 43.5812 14.3784 43.645ZM42.3625 43.8401C42.5616 44.099 43.0316 44.7204 43.414 45.2182C43.7963 45.7161 44.1349 46.1582 44.1588 46.194C44.2026 46.2578 44.1747 46.2936 43.9198 46.4848L43.633 46.7078L42.478 46.2657C41.8447 46.0188 41.2473 45.7918 41.1557 45.7519C41.0601 45.7161 40.9844 45.7002 40.9844 45.7161C40.9844 45.732 41.2712 46.1184 41.6256 46.5764C41.9761 47.0344 42.2988 47.4606 42.3426 47.5203L42.4183 47.6279L42.1554 47.835C42.012 47.9465 41.8885 48.0341 41.8845 48.0262C41.8766 48.0182 41.3907 47.377 40.7972 46.6003C40.2077 45.8236 39.7138 45.1664 39.6979 45.1425C39.686 45.1226 39.7975 45.0071 39.9488 44.8916L40.2237 44.6845L41.5659 45.2023C42.3067 45.4891 42.9201 45.7161 42.9241 45.7081C42.932 45.7041 42.6015 45.262 42.1952 44.7283C41.7889 44.1986 41.4703 43.7485 41.4902 43.7286C41.6097 43.6131 41.9283 43.3781 41.9642 43.3741C41.9881 43.3741 42.1673 43.5852 42.3625 43.8401ZM17.8117 46.0626C17.8754 46.1024 17.8595 46.198 17.5846 47.3371C17.4213 48.0182 17.2899 48.5838 17.2979 48.5957C17.3019 48.6077 17.4492 48.4643 17.6205 48.2771C17.7957 48.0899 18.1901 47.6637 18.4967 47.3292L19.0543 46.7238L19.4765 46.9468C19.7076 47.0703 19.9266 47.1898 19.9625 47.2176C20.0222 47.2575 19.9864 47.3411 19.6199 48.0182C19.3969 48.4324 19.0105 49.1533 18.7636 49.6154C18.5127 50.0814 18.2936 50.4637 18.2777 50.4637C18.2578 50.4637 18.1263 50.4 17.9829 50.3203C17.7838 50.2088 17.724 50.161 17.744 50.1092C17.7559 50.0734 18.0546 49.5118 18.4051 48.8546C18.7556 48.2014 19.0344 47.6598 19.0305 47.6558C19.0225 47.6478 18.5724 48.1337 18.0307 48.7312L17.043 49.8185L16.7442 49.6552C16.569 49.5596 16.4495 49.468 16.4495 49.4322C16.4495 49.3963 16.6088 48.7431 16.808 47.9784C17.0031 47.2137 17.1465 46.6043 17.1266 46.6242C17.1107 46.6441 16.804 47.1977 16.4495 47.8549C16.099 48.5121 15.7923 49.0657 15.7724 49.0856C15.7405 49.1175 15.167 48.8307 15.1869 48.7869C15.1909 48.775 15.5812 48.0461 16.0512 47.1699L16.9075 45.5727L17.3258 45.7997C17.5568 45.9232 17.7758 46.0427 17.8117 46.0626ZM39.4948 47.361C40.3033 48.0421 40.9804 48.6157 40.9963 48.6316C41.0163 48.6475 40.8729 48.7431 40.6857 48.8467L40.3392 49.0339L40.0086 48.7312L39.674 48.4285L39.0248 48.775C38.6663 48.9661 38.3676 49.1255 38.3596 49.1334C38.3517 49.1414 38.3716 49.3445 38.4035 49.5875L38.4632 50.0256L38.1406 50.2009L37.818 50.3761L37.7901 50.2686C37.7741 50.2128 37.6786 49.4561 37.579 48.5918C37.4794 47.7275 37.3798 46.895 37.3599 46.7397C37.34 46.5883 37.3281 46.4609 37.332 46.4569C37.3559 46.437 37.9813 46.1263 38.0012 46.1223C38.0131 46.1223 38.6862 46.68 39.4948 47.361ZM36.173 49.0538C36.4518 49.9937 36.6828 50.7824 36.6828 50.8023C36.6828 50.862 36.0416 51.0373 36.0097 50.9895C35.9978 50.9656 35.8902 50.623 35.7707 50.2287C35.6512 49.8304 35.5397 49.5078 35.5198 49.5078C35.476 49.5078 34.1656 49.9021 34.1457 49.9181C34.1377 49.926 34.2333 50.2606 34.3528 50.6669C34.4763 51.0691 34.5679 51.4156 34.5559 51.4395C34.54 51.4834 33.9346 51.6745 33.9067 51.6427C33.8589 51.5949 32.8632 48.1775 32.8871 48.1536C32.9588 48.0979 33.5084 47.9505 33.5323 47.9824C33.5483 47.9983 33.6478 48.305 33.7554 48.6595C33.8908 49.1215 33.9625 49.3087 34.0063 49.3087C34.0859 49.3087 35.3007 48.9462 35.3406 48.9144C35.3565 48.8984 35.2768 48.5838 35.1693 48.2174C35.0578 47.8469 34.9741 47.5403 34.9861 47.5283C35.018 47.4965 35.5835 47.3252 35.6234 47.3332C35.6433 47.3371 35.8902 48.1098 36.173 49.0538ZM22.2128 47.8947C22.4956 47.9824 22.5434 48.0103 22.5474 48.0859C22.5474 48.1337 22.631 49.0179 22.7346 50.0495L22.9218 51.9294L22.7425 51.8737C22.643 51.8418 22.4797 51.794 22.3761 51.7701L22.1889 51.7263L22.165 51.4236C22.1531 51.2563 22.1292 51.0492 22.1132 50.9656L22.0854 50.8063L21.4282 50.6151C21.0657 50.5115 20.7431 50.4239 20.7113 50.4239C20.6794 50.4239 20.544 50.5673 20.4165 50.7465C20.2891 50.9218 20.1616 51.0771 20.1337 51.089C20.1019 51.097 19.9266 51.0612 19.7394 51.0054L19.4009 50.9019L20.5838 49.3485C21.233 48.4962 21.7946 47.7992 21.8225 47.7992C21.8544 47.7952 22.0296 47.839 22.2128 47.8947ZM32.3175 48.3807C32.3295 48.4205 32.3494 48.5519 32.3613 48.6754L32.3892 48.8984L31.8675 48.9701C31.5767 49.01 31.3377 49.0538 31.3298 49.0657C31.3218 49.0777 31.4094 49.7627 31.5209 50.5832L31.728 52.0768L31.3935 52.1286C31.1585 52.1684 31.047 52.1684 31.031 52.1405C31.0151 52.1166 30.9155 51.4475 30.808 50.6549C30.7044 49.8583 30.6009 49.1932 30.5889 49.1772C30.573 49.1573 30.3261 49.1772 30.0393 49.2211L29.5175 49.2927L29.4936 49.1135C29.4777 49.0139 29.4578 48.8825 29.4498 48.8188C29.4379 48.759 29.4339 48.7112 29.4418 48.7073C29.4976 48.6913 32.1423 48.3209 32.21 48.3169C32.2618 48.313 32.3056 48.3408 32.3175 48.3807ZM24.9491 48.4962L25.1243 48.5201L25.7098 49.7986C26.2834 51.0452 26.367 51.2125 26.367 51.105C26.367 51.0094 26.6498 48.7351 26.6657 48.7192C26.6857 48.6993 27.2273 48.7551 27.2751 48.7869C27.299 48.8028 27.2393 49.4282 27.0999 50.5633C26.9804 51.5272 26.8848 52.3397 26.8848 52.3716C26.8848 52.4233 26.7334 52.4193 26.2874 52.3516L26.148 52.3317L25.5545 51.0413C25.2239 50.3283 24.9531 49.7548 24.9491 49.7588C24.9371 49.7667 24.6544 52.0649 24.6544 52.1326C24.6544 52.1445 24.503 52.1405 24.3158 52.1206L23.9773 52.0848L23.9972 51.9613C24.0211 51.8219 24.4154 48.532 24.4154 48.4643C24.4154 48.4404 24.4791 48.4324 24.5946 48.4484C24.6942 48.4603 24.8535 48.4842 24.9491 48.4962Z" fill="#030E1F"/>
<path d="M25.4031 4.29763C25.2996 4.31356 25.204 4.33746 25.188 4.34941C25.1482 4.39322 25.2916 5.55225 25.3434 5.60403C25.3792 5.63988 25.4708 5.63988 25.7098 5.612C25.885 5.5881 26.0324 5.56819 26.0364 5.56022C26.0444 5.55624 26.0165 5.26548 25.9767 4.91499L25.9089 4.2817L25.7496 4.27772C25.662 4.27373 25.5067 4.2817 25.4031 4.29763ZM31.7041 4.48483C31.7041 4.50076 31.6483 4.85524 31.5806 5.26947C31.5169 5.68767 31.4771 6.03817 31.493 6.0541C31.5289 6.08597 32.1422 6.18952 32.1582 6.16563C32.1621 6.16164 32.2219 5.80318 32.2896 5.37701C32.3732 4.84728 32.4011 4.59237 32.3732 4.57245C32.3493 4.56051 32.2298 4.53661 32.1064 4.52068C31.9829 4.50873 31.8435 4.48483 31.7957 4.47288C31.7439 4.46093 31.7041 4.46492 31.7041 4.48483ZM41.6136 10.2999C41.3667 10.5349 41.1118 10.7739 41.048 10.8336L40.9365 10.9412L41.1237 11.0885C41.2313 11.1682 41.3269 11.2319 41.3388 11.2319C41.3547 11.2319 41.4902 11.0049 41.6375 10.7221C41.7889 10.4433 41.9562 10.1406 42.0119 10.045C42.0637 9.95339 42.0995 9.87771 42.0876 9.87771C42.0756 9.87771 41.8646 10.0689 41.6136 10.2999ZM27.2831 9.74229C26.0922 9.80602 25.0924 9.93347 24.0768 10.1446C18.5843 11.2877 13.8566 14.8803 11.3235 19.835C10.2999 21.8384 9.70242 23.8339 9.41564 26.1878C9.332 26.8968 9.30014 28.5855 9.3559 29.3542C9.65462 33.365 11.1522 37.0094 13.7451 40.0285C14.243 40.61 15.3502 41.7093 15.8919 42.1593C18.3693 44.2145 21.2927 45.6006 24.4153 46.198C25.7974 46.4609 26.2355 46.5007 27.9402 46.5007C29.6011 46.5007 29.9755 46.4728 31.2062 46.2578C34.5121 45.6802 37.5311 44.2743 40.128 42.1076C40.7334 41.6017 42.0438 40.2515 42.5576 39.6103C44.0273 37.7662 45.019 35.934 45.7399 33.7474C47.1977 29.3024 46.8552 24.4034 44.788 20.1736C43.868 18.2897 42.7806 16.7722 41.283 15.2706C40.2594 14.243 39.5186 13.6296 38.4552 12.9167C35.8264 11.1682 32.895 10.1207 29.7525 9.81797C29.163 9.75822 27.7491 9.7184 27.2831 9.74229ZM29.3382 10.276C31.2142 10.4234 32.9826 10.8256 34.6913 11.4988C38.4392 12.9685 41.5897 15.6291 43.6409 19.0584C43.9277 19.5443 44.3818 20.3926 44.3618 20.4126C44.3539 20.4205 43.8839 20.5798 43.3143 20.771C32.9587 24.2162 23.1089 24.2322 12.9166 20.8228C12.2595 20.6037 11.6939 20.4086 11.666 20.3887C11.6023 20.3528 11.7178 20.1019 12.136 19.3571C12.9286 17.9591 13.9482 16.6407 15.159 15.4538C16.6008 14.0399 17.9869 13.0561 19.7952 12.152C21.8862 11.1084 24.1883 10.4672 26.4865 10.28C27.0919 10.2322 28.7408 10.2282 29.3382 10.276ZM11.9767 21.3087C12.4825 21.7946 13.3348 22.5076 13.9522 22.9616C14.0996 23.0692 14.2191 23.1687 14.2191 23.1807C14.2191 23.1966 14.1195 23.3599 13.996 23.5392C13.5579 24.1963 13.2353 24.9571 13.0401 25.7895C12.9326 26.2396 12.9246 26.3192 12.9246 27.1835C12.9246 28.0478 12.9326 28.1275 13.0401 28.5776C13.2432 29.4339 13.5021 30.0473 13.9641 30.7403C14.7408 31.9033 15.9676 32.8114 17.3855 33.2694C18.2139 33.5403 20.759 33.9465 22.5633 34.1019C23.3559 34.1696 26.3192 34.1696 27.2631 34.0979C27.7889 34.062 27.9801 34.0581 27.992 34.0939C28.004 34.1258 28.0199 34.1258 28.0597 34.0939C28.0996 34.0581 28.697 34.066 30.3579 34.1178C34.2731 34.2373 35.8463 34.1019 37.8776 33.4686C39.0646 33.1022 39.7934 32.7915 40.3072 32.441C41.7929 31.4293 42.7607 29.9397 43.0594 28.2032C43.167 27.5659 43.167 26.6339 43.0594 26.0086C42.8882 25.0407 42.6054 24.3357 42.0756 23.5511L41.8128 23.1648L41.9044 23.101C42.3425 22.8143 43.5613 21.7986 44.1189 21.253L44.569 20.8188L44.6526 21.014C46.2298 24.6424 46.5644 28.6413 45.6045 32.4529C45.2978 33.6757 44.9354 34.6674 44.3738 35.8265C43.4577 37.7144 42.3823 39.2319 40.9047 40.7056C37.7303 43.88 33.6119 45.7201 28.9877 46.0228C28.7727 46.0347 28.5974 46.0387 28.5974 46.0268C28.5974 46.0148 28.6811 45.9471 28.7846 45.8794C29.4299 45.4413 30.9195 44.2822 31.7121 43.6051C32.1741 43.2108 32.9388 42.4421 32.9388 42.3704C32.9388 42.3545 32.8791 42.3664 32.8114 42.3983C32.7397 42.4262 32.4131 42.5656 32.0825 42.709C31.4811 42.9639 31.0788 43.1073 30.8398 43.1511L30.7084 43.171L30.7323 39.8771C30.7482 38.0649 30.7602 36.5793 30.7641 36.5753C30.7681 36.5713 31.1744 36.5474 31.6643 36.5235C33.4566 36.4398 35.5755 36.2009 36.6071 35.9699C36.6947 35.9499 36.7624 35.942 36.7624 35.9539C36.7624 35.9898 36.4199 36.4558 36.0335 36.9536C35.2768 37.9255 34.2253 39.1602 33.5601 39.8572L33.2176 40.2196V41.1795C33.2176 41.7053 33.2296 42.1394 33.2415 42.1394C33.3252 42.1394 33.7155 41.8049 34.1934 41.3269C35.2967 40.2157 36.854 38.3756 38.2082 36.5793C39.3792 35.0259 40.1001 33.8151 39.8611 33.8151C39.8333 33.8151 39.4589 33.8868 39.0287 33.9744C34.8626 34.8148 30.7044 35.1852 26.586 35.0857C23.2324 35.006 19.9107 34.6117 16.7482 33.9187C16.4216 33.847 16.1428 33.7912 16.1348 33.7992C16.1269 33.8071 16.2105 33.9983 16.322 34.2214C16.9752 35.5517 19.8629 39.2757 21.6791 41.1317C22.3641 41.8327 22.7226 42.1195 22.7823 42.0199C22.8062 41.9881 22.8222 41.5619 22.8222 41.072V40.1878L22.4518 39.7775C21.2967 38.503 19.7792 36.6509 19.3809 36.0416L19.3132 35.934L19.5044 35.9699C20.5957 36.177 23.097 36.4478 24.8256 36.5474L25.2916 36.5713V43.0913L25.1442 43.0674C24.7897 43.0117 23.8418 42.6851 23.0492 42.3425C22.9456 42.2987 23.1727 42.5975 23.4276 42.8364C24.1126 43.4976 25.8373 44.8637 27.2074 45.8356C27.5459 46.0746 27.5818 46.0626 26.7254 46.0029C22.8222 45.728 19.2375 44.2902 16.2105 41.7889C15.5653 41.2552 14.3146 39.9886 13.8088 39.3554C12.2117 37.3559 11.1721 35.3605 10.495 33.0185C9.40768 29.2467 9.61081 25.2558 11.0725 21.5676C11.2438 21.1374 11.3991 20.7909 11.423 20.7909C11.431 20.7909 11.6819 21.0259 11.9767 21.3087ZM14.8165 22.0137C15.3263 22.2009 16.5132 22.6151 18.1024 23.1608C23.097 24.8734 24.7897 25.6939 27.8247 27.8925L28.0279 28.0399L28.5018 27.6774C30.1428 26.4228 31.9431 25.4032 33.9545 24.5946C34.998 24.1724 35.6711 23.9374 38.6344 22.9616C39.4788 22.6828 40.4267 22.3562 40.7414 22.2407C41.056 22.1212 41.3189 22.0296 41.3269 22.0336C41.3348 22.0456 40.9206 22.2646 36.1849 24.742C32.4728 26.6857 31.2142 27.4942 29.9875 28.717C29.1232 29.5773 28.6014 30.338 28.231 31.274C28.1394 31.513 28.0518 31.7041 28.0398 31.7041C28.0239 31.7041 27.984 31.6006 27.9442 31.4771C27.8327 31.1306 27.3906 30.2902 27.1118 29.9039C26.1957 28.6333 24.8336 27.5101 22.7425 26.3073C22.4478 26.136 20.4484 25.0726 18.3016 23.9454C16.1548 22.8182 14.3704 21.8783 14.3385 21.8584C14.2668 21.8145 14.2708 21.8145 14.8165 22.0137ZM15.7405 24.1963C16.3659 24.6106 16.9912 25.0208 17.1226 25.1005L17.3656 25.2478L17.1863 25.4151C16.9235 25.6581 16.6526 26.0882 16.5172 26.4825C16.3579 26.9286 16.322 27.6217 16.4296 28.0996C16.7283 29.4458 18.0068 30.3977 19.5163 30.4017C20.7869 30.4017 21.8583 29.6569 22.2486 28.4939C22.3004 28.3346 22.3442 28.1514 22.3442 28.0837C22.3442 28.016 22.3522 27.9602 22.3641 27.9602C22.4 27.9602 23.7303 28.7767 24.2162 29.0953C26.2236 30.4256 27.1954 31.5528 27.7371 33.1898C27.9163 33.7275 27.9163 33.7434 27.753 33.7155C27.6813 33.7036 26.4825 33.5682 25.0924 33.4168C22.2885 33.1061 20.9502 32.9229 19.9346 32.7198C17.8833 32.3056 16.5371 31.732 15.6808 30.9076C14.689 29.9596 14.1513 28.9719 13.9323 27.7013C13.8646 27.2911 13.8526 27.1198 13.8725 26.4865C13.8964 25.7178 13.9522 25.3474 14.1593 24.5827C14.2828 24.1406 14.5417 23.4117 14.5775 23.4276C14.5895 23.4356 15.1112 23.7781 15.7405 24.1963ZM41.6813 23.7861C41.9044 24.272 42.0398 24.6783 42.1473 25.2239C42.2628 25.8094 42.2708 26.8609 42.1633 27.4623C41.9203 28.8046 41.3229 29.9756 40.4028 30.8956C39.7257 31.5727 38.4552 32.2259 37.0412 32.6202C35.7747 32.9707 34.4722 33.146 30.3499 33.5164C29.4856 33.5921 28.6412 33.6717 28.4779 33.6956C28.3146 33.7155 28.1752 33.7235 28.1673 33.7155C28.1314 33.6837 28.5018 32.676 28.701 32.2657C29.2068 31.2063 29.856 30.4694 30.9673 29.6928C31.1664 29.5574 31.7081 29.2069 32.1781 28.9161C32.6481 28.6253 33.1698 28.3027 33.3331 28.1952L33.6358 28.004L33.6796 28.2111C34.0301 29.9158 35.7747 30.8638 37.5192 30.3022C38.5627 29.9676 39.4947 29.0834 39.7616 28.1753C40.0205 27.299 39.7178 26.1997 38.9889 25.3633L38.7897 25.1363L38.961 25.0487C39.3792 24.8336 40.7095 23.9773 41.2432 23.575C41.3547 23.4914 41.4583 23.4236 41.4742 23.4236C41.4941 23.4197 41.5857 23.5869 41.6813 23.7861ZM18.3693 25.7098L18.5166 25.8094L18.4171 26.0285C18.0188 26.8968 18.4051 27.9244 19.2973 28.3625C19.5641 28.4939 19.592 28.4979 20.0142 28.4979C20.4006 28.4979 20.4762 28.4859 20.6714 28.3943C20.9422 28.2669 21.2569 28.012 21.4282 27.777C21.5038 27.6814 21.5676 27.6057 21.5715 27.6137C21.5795 27.6217 21.5596 27.7451 21.5277 27.8925C21.4003 28.5098 20.9183 29.0913 20.289 29.398C19.9545 29.5613 19.9107 29.5733 19.5283 29.5852C19.2216 29.5972 19.0742 29.5852 18.9109 29.5335C18.3653 29.3542 17.8993 28.9878 17.5687 28.482C17.0111 27.6177 17.1585 26.5861 17.9511 25.8293C18.0785 25.7098 18.19 25.6103 18.202 25.6103C18.2139 25.6103 18.2896 25.6541 18.3693 25.7098ZM38.1843 25.8891C38.5428 26.3352 38.738 26.8012 38.7778 27.3229C38.8734 28.4899 37.9931 29.4458 36.7106 29.5773C35.8463 29.6649 35.0537 29.0794 34.6873 28.0797C34.6236 27.9044 34.5718 27.7491 34.5718 27.7332C34.5718 27.7212 34.6793 27.8288 34.8148 27.9721C35.225 28.4222 35.7707 28.6174 36.3283 28.5218C36.9217 28.4143 37.4077 28.0518 37.6665 27.53C37.8139 27.2313 37.8179 27.2194 37.8179 26.7693C37.8179 26.383 37.802 26.2635 37.7263 26.0564L37.6307 25.8015L37.7223 25.7059C37.7741 25.6501 37.8498 25.6103 37.8936 25.6182C37.9374 25.6262 38.0688 25.7457 38.1843 25.8891Z" fill="#030E1F"/>
<path d="M15.0156 16.1907V16.6886H16.33V20.313H17.4452V16.6886H18.7197V15.6928H15.0156V16.1907ZM19.2853 15.7964C19.2375 15.892 19.2853 15.9756 20.0341 17.1585L20.8307 18.4171V20.313H21.9459V18.4052L22.7425 17.1426C23.5231 15.9119 23.5391 15.88 23.4793 15.7884C23.4156 15.6928 23.4076 15.6888 22.8739 15.7008L22.3323 15.7127L21.8782 16.4894C21.6313 16.9156 21.4122 17.2621 21.3963 17.2541C21.3803 17.2501 21.1613 16.8997 20.9064 16.4775L20.4483 15.7127L19.8907 15.7008L19.3291 15.6888L19.2853 15.7964ZM24.3635 15.7167C24.3476 15.7327 24.3357 16.7722 24.3357 18.0308V20.313H24.8893C25.427 20.313 25.4429 20.309 25.4668 20.2214C25.4788 20.1736 25.4907 19.7713 25.4907 19.3252V18.5207H25.7297C25.9368 18.5207 25.9846 18.5366 26.1041 18.6402C26.1798 18.7079 26.4785 19.1102 26.7652 19.5363L27.287 20.313H27.8566C28.6452 20.313 28.6412 20.3369 28.0916 19.4607C27.8605 19.0942 27.5738 18.688 27.4543 18.5605L27.2392 18.3295L27.4543 18.2299C27.7331 18.1025 27.98 17.8436 28.0836 17.5648C28.2031 17.2462 28.1792 16.7125 28.0278 16.4297C27.8406 16.0792 27.6415 15.9039 27.283 15.7884C27.0958 15.7287 26.8688 15.7167 25.7297 15.7008C24.9968 15.6928 24.3835 15.7008 24.3635 15.7167ZM26.7852 16.7443C26.9485 16.812 27.0042 16.9116 27.0042 17.1227C27.0042 17.2342 26.9763 17.3139 26.9086 17.3935L26.813 17.5051L26.1519 17.517L25.4907 17.529V16.6886H26.0682C26.4785 16.6886 26.6896 16.7045 26.7852 16.7443ZM29.3541 18.0029V20.313H32.891L32.9149 20.2214C32.9268 20.1736 32.9388 19.9506 32.9388 19.7235V19.3173H30.5092V18.4012L31.5965 18.3932L32.6799 18.3813V17.4254L31.5965 17.4134L30.5092 17.4055V16.6886H32.8631L32.8511 16.1987L32.8392 15.7127L31.0987 15.7008L29.3541 15.6928V18.0029ZM34.054 18.0228V20.313H37.3518L37.3757 20.2214C37.3877 20.1736 37.3996 19.9506 37.3996 19.7235V19.3173H35.209V15.7327H34.054V18.0228ZM38.3954 18.0228V20.313H41.6932L41.7171 20.2214C41.7291 20.1736 41.741 19.9506 41.741 19.7235V19.3173H39.5504V15.7327H38.3954V18.0228ZM50.1569 29.4498C49.7786 29.5614 49.4679 29.6609 49.4679 29.6729C49.4719 29.7047 50.7544 30.2743 50.7743 30.2504C50.7982 30.2265 50.8699 29.402 50.8539 29.3144C50.842 29.2547 50.7544 29.2746 50.1569 29.4498ZM5.25747 29.4498C4.77156 29.5454 4.51267 29.7167 4.35733 30.0513C4.15022 30.4934 4.28166 31.0231 4.668 31.2899C5.22163 31.6723 6.34879 31.4931 6.66743 30.9713C6.89445 30.6049 6.85064 30.0552 6.56785 29.7326C6.32888 29.4658 5.78322 29.3463 5.25747 29.4498ZM7.12945 33.5761C7.07369 33.596 6.89844 33.6478 6.7431 33.6956C6.58379 33.7394 6.45235 33.7992 6.45235 33.8231C6.45235 33.847 6.52404 34.0979 6.61565 34.3847C6.81081 35.006 6.90242 35.1295 7.17724 35.1295C7.41622 35.1295 7.59147 35.014 7.65121 34.8188C7.699 34.6515 7.69502 34.6436 7.46401 33.8629C7.35647 33.5204 7.34054 33.5044 7.12945 33.5761ZM38.0528 47.126C38.0648 47.1778 38.1126 47.4964 38.1604 47.835C38.2042 48.1735 38.248 48.4603 38.2599 48.4683C38.2838 48.4922 39.1282 48.0501 39.1402 48.0063C39.1442 47.9744 38.2082 47.13 38.0927 47.0663C38.0449 47.0384 38.0369 47.0543 38.0528 47.126ZM21.5835 49.1493C21.1812 49.695 21.0697 49.8543 21.0697 49.8742C21.0697 49.9021 22.0216 50.161 22.0375 50.1411C22.0534 50.1252 21.9579 48.8666 21.934 48.7511C21.93 48.7192 21.7746 48.8944 21.5835 49.1493Z" fill="#030E1F"/>
<path d="M76.1016 34H78.4609V24.6719H81.8438V22.7266H72.7188V24.6719H76.1016V34ZM87.0469 34H89.4062V29.7891L93.3359 22.7266H90.7812L88.3047 27.4688H88.1641L85.6797 22.7266H83.125L87.0469 29.7891V34ZM95.2578 34H97.6172V29.875H99.5469L101.648 34H104.32L101.945 29.5234C103.234 29.0156 103.984 27.7734 103.984 26.3281V26.3125C103.984 24.0938 102.516 22.7266 99.9531 22.7266H95.2578V34ZM97.6172 28.1562V24.5703H99.6641C100.844 24.5703 101.57 25.2734 101.57 26.3594V26.375C101.57 27.4844 100.875 28.1562 99.6953 28.1562H97.6172ZM106.367 34H113.836V32.0547H108.727V29.2031H113.547V27.3906H108.727V24.6719H113.836V22.7266H106.367V34ZM116.32 34H123.695V32.0547H118.68V22.7266H116.32V34ZM125.836 34H133.211V32.0547H128.195V22.7266H125.836V34ZM144.266 34.2891C146.984 34.2891 148.914 32.6797 149.156 30.3203L149.164 30.2344H146.867L146.852 30.2969C146.602 31.5 145.625 32.2891 144.273 32.2891C142.492 32.2891 141.391 30.7891 141.391 28.3672V28.3516C141.391 25.9297 142.492 24.4375 144.266 24.4375C145.609 24.4375 146.617 25.2969 146.859 26.5625V26.6172H149.156V26.5234C148.938 24.1406 146.938 22.4375 144.266 22.4375C140.992 22.4375 138.977 24.6953 138.977 28.3516V28.3672C138.977 32.0234 141 34.2891 144.266 34.2891ZM156.266 34.2891C159.594 34.2891 161.688 32.0078 161.688 28.3672V28.3516C161.688 24.7109 159.586 22.4375 156.266 22.4375C152.945 22.4375 150.836 24.7031 150.836 28.3516V28.3672C150.836 32.0078 152.914 34.2891 156.266 34.2891ZM156.266 32.2891C154.406 32.2891 153.242 30.75 153.242 28.3672V28.3516C153.242 25.9609 154.43 24.4375 156.266 24.4375C158.094 24.4375 159.281 25.9609 159.281 28.3516V28.3672C159.281 30.75 158.102 32.2891 156.266 32.2891ZM163.93 34H166.289V29.875H168.219L170.32 34H172.992L170.617 29.5234C171.906 29.0156 172.656 27.7734 172.656 26.3281V26.3125C172.656 24.0938 171.188 22.7266 168.625 22.7266H163.93V34ZM166.289 28.1562V24.5703H168.336C169.516 24.5703 170.242 25.2734 170.242 26.3594V26.375C170.242 27.4844 169.547 28.1562 168.367 28.1562H166.289ZM175.039 34H177.398V30.4453H179.688C182.062 30.4453 183.648 28.9141 183.648 26.5938V26.5781C183.648 24.2578 182.062 22.7266 179.688 22.7266H175.039V34ZM179.109 24.5938C180.461 24.5938 181.258 25.3047 181.258 26.5859V26.6016C181.258 27.8828 180.461 28.6016 179.109 28.6016H177.398V24.5938H179.109Z" fill="#0C2744"/>
</svg>
