<svg width="185" height="56" viewBox="0 0 185 56" fill="none" xmlns="http://www.w3.org/2000/svg">
<rect width="185" height="56" fill="white"/>
<path d="M26.3273 1.47373C22.6271 1.7366 19.2576 2.62878 16.0314 4.20204C10.75 6.77501 6.4445 11.0168 3.8078 16.2504C2.23853 19.3611 1.32644 22.643 1.02772 26.2675C0.967977 27.0242 0.967977 29.3543 1.0317 30.0911C1.34237 33.7594 2.20667 36.886 3.77992 40.0285C4.14635 40.7534 4.16626 40.7893 4.54464 41.4464C6.55204 44.9315 9.41576 47.9864 12.8052 50.2687C14.4223 51.36 16.4257 52.3955 18.2817 53.1045C20.799 54.0684 23.5233 54.6578 26.3034 54.8411C27.1079 54.8968 28.9639 54.8968 29.7605 54.845C35.8146 54.4428 41.4823 52.0968 46.0228 48.1099C46.6242 47.5842 47.7594 46.461 48.2174 45.9432C48.3887 45.748 48.5639 45.5489 48.6077 45.5051C48.779 45.3179 49.7548 44.0792 50.0057 43.7327C52.7181 39.9728 54.387 35.6632 54.9047 31.0868C55.0601 29.6888 55.1079 27.6655 55.0083 26.3472C54.4746 19.142 51.1648 12.602 45.6843 7.91812C44.5412 6.9423 42.8883 5.77928 41.5819 5.03447C38.1565 3.07885 34.3767 1.89592 30.3898 1.53347C29.5733 1.4578 27.0721 1.42195 26.3273 1.47373ZM29.5733 2.07117C34.9383 2.40972 39.8851 4.22195 44.111 7.40034C45.7878 8.65894 47.5562 10.3796 48.8547 12.0126C51.7423 15.649 53.6103 19.9944 54.2475 24.5747C54.4586 26.1082 54.5423 28.1833 54.4507 29.6331C54.2874 32.1702 53.7935 34.5679 52.9531 36.882C49.5676 46.21 41.1238 52.8456 31.1665 54.0086C30.0115 54.1401 29.3025 54.1799 27.9802 54.1799C26.3312 54.1799 25.2041 54.0883 23.6348 53.8294C15.2069 52.4234 8.03368 47.15 4.26584 39.5904C0.621462 32.2777 0.657309 23.7264 4.36143 16.4296C7.73895 9.78213 13.8647 4.85126 21.1415 2.9275C22.8422 2.47743 24.6823 2.17871 26.4069 2.07515C27.1955 2.02736 28.8405 2.02736 29.5733 2.07117Z" fill="#030E1F"/>
<path d="M26.8051 2.49337C22.9337 2.7204 19.5522 3.60859 16.2105 5.28142C12.4386 7.16932 9.22838 9.90958 6.76693 13.3429C1.79622 20.2652 0.641173 29.2308 3.6921 37.1767C5.99026 43.159 10.4511 48.058 16.2304 50.9536C19.2415 52.4592 22.3083 53.3274 25.7894 53.658C26.5462 53.7297 29.5812 53.7297 30.3101 53.658C34.8466 53.2159 38.8973 51.794 42.5576 49.3684C44.6526 47.9784 46.5405 46.2856 48.1536 44.3499C50.4398 41.6137 52.1963 38.2561 53.1243 34.8507C54.1997 30.9195 54.3312 26.9724 53.5266 23.0214C52.3596 17.2979 49.1573 12.0404 44.569 8.32836C40.4586 4.99863 35.5954 3.047 30.2304 2.56904C29.5692 2.5093 27.3627 2.46151 26.8051 2.49337ZM29.86 3.51698C29.8719 3.52893 29.868 3.69621 29.852 3.88739L29.8202 4.23391L29.2307 4.21001L28.6372 4.1901V4.65212C28.6372 4.90702 28.6253 5.18583 28.6133 5.26549L28.5855 5.41684H28.9837C29.2028 5.41684 29.4418 5.42879 29.5095 5.44073L29.633 5.46463V6.13376H28.6094L28.5855 6.61968C28.5695 6.88255 28.5576 7.17729 28.5576 7.2689V7.43618L29.1192 7.46008C29.5135 7.47999 29.6927 7.50389 29.7325 7.53974C29.7724 7.58355 29.7803 7.67117 29.7644 7.90218L29.7405 8.20887L28.7408 8.18099C28.1911 8.16506 27.7371 8.15311 27.7371 8.14912C27.7331 8.14912 27.753 7.26491 27.7849 6.19351C27.8128 5.11812 27.8367 4.06264 27.8406 3.84756V3.45325L28.8404 3.47715C29.39 3.4891 29.848 3.50902 29.86 3.51698ZM26.4864 3.54486C26.5303 3.56876 26.582 3.62452 26.6099 3.66833C26.6338 3.71214 26.7015 4.21001 26.7653 4.76762C26.8648 5.65581 26.8728 5.7992 26.825 5.89479C26.7692 6.00233 26.6179 6.09393 26.4944 6.09393C26.3032 6.09792 26.3152 6.14571 26.7971 7.13746L27.2751 8.11726L27.048 8.14514C26.9246 8.15709 26.7414 8.18099 26.6378 8.19294L26.4506 8.21683L25.9647 7.21314C25.666 6.59977 25.4549 6.21342 25.419 6.21342C25.3792 6.21342 25.3712 6.24927 25.3872 6.36079C25.3991 6.44443 25.4469 6.85069 25.4907 7.2689C25.5345 7.68312 25.5823 8.08938 25.5943 8.16904L25.6142 8.31641L25.3035 8.34429C25.1322 8.35624 24.953 8.38013 24.9052 8.39208C24.8335 8.40801 24.8136 8.39208 24.7977 8.27658C24.7499 7.98582 24.2839 3.74003 24.2998 3.72808C24.3237 3.70418 25.9965 3.51698 26.2196 3.50902C26.3271 3.50902 26.4466 3.52495 26.4864 3.54486ZM32.0825 3.80375C32.5644 3.87943 33.0105 3.96307 33.0702 3.98697C33.3092 4.08654 33.3092 4.18611 33.0782 5.612C32.9508 6.39664 32.8751 6.73917 32.8233 6.81086C32.7237 6.94628 32.4847 6.95823 31.8634 6.85069C31.5249 6.79493 31.3655 6.779 31.3456 6.81086C31.3337 6.83078 31.27 7.18127 31.2062 7.58753C31.1465 7.98981 31.0828 8.3403 31.0668 8.3642C31.0469 8.39607 30.9314 8.39208 30.6645 8.34429C30.4574 8.30844 30.2862 8.27658 30.2822 8.27259C30.2782 8.26463 30.9513 4.06264 31.0071 3.75197C31.027 3.64443 31.0469 3.6285 31.1186 3.64443C31.1664 3.65638 31.6005 3.72808 32.0825 3.80375ZM35.2131 4.55254C35.229 4.55652 35.1892 4.71982 35.1294 4.91897C34.1496 8.12523 34.0899 8.33632 34.1377 8.3642C34.1616 8.38013 34.3886 8.45581 34.6355 8.5275C34.9621 8.61911 35.0896 8.67487 35.1015 8.72665C35.1294 8.8302 34.9582 9.35993 34.8984 9.35993C34.8586 9.35993 33.134 8.84614 33.1101 8.82622C33.1021 8.81826 33.2893 8.18497 34.0341 5.73149L34.4643 4.31357L34.8267 4.42907C35.0259 4.48882 35.2011 4.54458 35.2131 4.55254ZM21.2569 4.56847C21.3166 4.63618 21.4401 4.91897 21.5675 5.2854L21.7786 5.89081L21.4042 6.01428C21.1931 6.08597 21.0219 6.13376 21.0139 6.12978C21.0099 6.12181 20.9462 5.94258 20.8745 5.73547C20.8028 5.52836 20.7311 5.34514 20.7152 5.32921C20.6873 5.29735 20.1536 5.46065 20.0421 5.52836C20.0062 5.55226 20.0699 5.78327 20.3129 6.4763C20.8546 8.0137 21.0776 8.64301 21.0935 8.64301C21.1533 8.64301 21.7866 8.3881 21.7866 8.3642C21.7866 8.34827 21.7229 8.15709 21.6472 7.94599C21.5675 7.73092 21.5118 7.53974 21.5197 7.51584C21.5396 7.44813 22.149 7.24898 22.2207 7.28483C22.2566 7.30873 22.3721 7.58753 22.4995 7.96193C22.7345 8.65495 22.7385 8.72665 22.5314 8.86207C22.4159 8.93774 20.8825 9.47942 20.7829 9.47942C20.6753 9.47942 20.532 9.40375 20.4802 9.31612C20.3726 9.14486 19.118 5.47658 19.118 5.33718C19.118 5.24159 19.1459 5.16591 19.1977 5.11812C19.3012 5.02253 20.8506 4.4689 21.0258 4.46492C21.1214 4.46093 21.1852 4.48882 21.2569 4.56847ZM37.563 5.40091C37.7064 5.45667 37.8418 5.53234 37.8617 5.56819C37.8936 5.61997 37.7064 6.11385 37.0333 7.74685C36.5593 8.90588 36.161 9.86975 36.157 9.88568C36.1411 9.92551 35.4281 9.61882 35.4281 9.57103C35.4281 9.55111 35.8224 8.56733 36.3044 7.39237C37.0014 5.68768 37.1886 5.2615 37.2404 5.27743C37.2722 5.28938 37.4196 5.34514 37.563 5.40091ZM18.2179 6.21342C18.3573 6.50816 18.8073 7.44016 19.2136 8.28056C19.6199 9.12096 19.9544 9.81399 19.9544 9.82195C19.9544 9.82992 19.7951 9.91754 19.6039 10.0131L19.2495 10.1884L19.1379 9.96534C18.5445 8.76648 17.2102 5.95852 17.2301 5.9386C17.2898 5.87886 17.7957 5.66378 17.8714 5.66776C17.943 5.67174 18.0068 5.76733 18.2179 6.21342ZM40.0284 6.61171C40.7971 7.02992 40.9445 7.14543 40.9445 7.32068C40.9445 7.40432 40.4068 8.47174 40.3112 8.5753C40.2953 8.59123 40.128 8.51954 39.9368 8.412L39.5943 8.22082L39.8133 7.81854L40.0324 7.41228L39.8611 7.32466C39.7656 7.27686 39.6142 7.19721 39.5266 7.14144L39.3593 7.04585L38.5786 8.47572C38.1485 9.26036 37.798 9.91356 37.798 9.92949C37.798 9.95737 38.3715 10.276 38.4273 10.276C38.4512 10.276 38.5627 10.1008 38.6742 9.88568C38.7897 9.67458 38.8893 9.49137 38.8973 9.4834C38.9252 9.45154 39.5465 9.81797 39.5584 9.87373C39.5664 9.90958 39.435 10.1884 39.2637 10.4951C38.9411 11.0845 38.8216 11.212 38.6264 11.1761C38.483 11.1483 37.1288 10.4114 36.9934 10.284C36.7784 10.0848 36.7943 10.041 37.7621 8.27658C38.8176 6.34884 38.8654 6.27317 38.969 6.21741C39.1203 6.14173 39.2836 6.20147 40.0284 6.61171ZM16.6048 6.66349C16.6964 6.81484 16.7681 6.94628 16.7601 6.95026C16.7521 6.95823 16.6088 7.04585 16.4375 7.14941L16.1268 7.33661L16.2264 7.49991C16.2782 7.59151 16.7362 8.35624 17.2381 9.19663C17.7439 10.041 18.1502 10.742 18.1422 10.7579C18.1143 10.7978 17.485 11.1642 17.4691 11.1483C17.4611 11.1403 17.015 10.3875 16.4694 9.47942C15.9277 8.57131 15.4696 7.81058 15.4497 7.79066C15.4338 7.77075 15.2824 7.83846 15.1152 7.94201C14.9479 8.04158 14.7965 8.11726 14.7806 8.10531C14.7368 8.08141 14.4062 7.5238 14.4261 7.50787C14.5098 7.42423 16.318 6.38071 16.3698 6.38469C16.4096 6.38867 16.5092 6.50418 16.6048 6.66349ZM13.7849 8.29251C13.8805 8.40801 13.98 8.53149 14.0079 8.56733C14.0517 8.62309 14.0039 8.67487 13.6216 8.97757C13.3826 9.16875 13.1755 9.344 13.1595 9.36392C13.1436 9.39578 13.8366 10.3158 13.8805 10.3158C13.8884 10.3158 14.0756 10.1725 14.2947 9.9972L14.693 9.68255L14.916 9.96136C15.0395 10.1167 15.1351 10.2481 15.1271 10.2521C14.6412 10.6265 14.3425 10.8894 14.3704 10.9292C14.8563 11.5625 15.151 11.905 15.1869 11.8811C15.2147 11.8652 15.4099 11.7138 15.621 11.5426C15.8321 11.3713 16.0432 11.2319 16.087 11.2319C16.1388 11.2319 16.2423 11.3235 16.3658 11.4749L16.561 11.7218L15.7803 12.3511L14.9957 12.9844L14.912 12.8968C14.8642 12.845 14.2031 12.0245 13.4423 11.0726C12.4625 9.84983 12.0682 9.32807 12.0921 9.29222C12.1319 9.2285 13.5499 8.08938 13.5897 8.0854C13.6016 8.0854 13.6893 8.18099 13.7849 8.29251ZM43.0674 8.62309C43.2108 8.73063 43.3303 8.8541 43.3343 8.89393C43.3343 8.94571 41.299 13.076 41.2392 13.1397C41.2233 13.1557 40.6936 12.7653 40.6338 12.6936C40.606 12.6618 40.6498 12.5463 40.7892 12.3073C40.8927 12.1201 40.9804 11.9488 40.9804 11.921C40.9843 11.8931 40.8529 11.7736 40.6976 11.6541L40.4068 11.435L40.1041 11.7377C39.9368 11.901 39.7815 12.0325 39.7616 12.0245C39.6739 11.9887 39.1562 11.5665 39.1641 11.5386C39.184 11.4629 42.7209 8.37615 42.7607 8.40005C42.7846 8.412 42.924 8.51157 43.0674 8.62309ZM29.8321 9.34002C33.9545 9.75026 37.7064 11.3793 40.8131 14.1076C41.3468 14.5776 42.3226 15.5773 42.7806 16.1309C45.1744 19.0026 46.6481 22.4677 47.0583 26.1719C47.1499 26.9724 47.1778 28.6293 47.122 29.4379C46.8233 33.5522 45.2062 37.4396 42.5098 40.5064C41.9641 41.1278 40.9445 42.1275 40.3749 42.5975C38.5189 44.1349 36.3601 45.3337 34.0819 46.0865C30.6247 47.2296 26.8648 47.377 23.316 46.5007C16.788 44.8916 11.5783 40.0205 9.62668 33.6956C9.05313 31.8435 8.79424 30.111 8.79424 28.1593C8.79424 26.7972 8.88187 25.8612 9.12483 24.6145C10.5826 17.0709 16.5172 11.1602 24.1763 9.62281C25.0406 9.45154 26.1638 9.31612 27.1436 9.26434C27.6893 9.23646 29.2267 9.28027 29.8321 9.34002ZM11.6779 10.7062C11.9726 10.985 12.7294 11.6939 13.3547 12.2834L14.4978 13.3508L14.2748 13.6057C14.1513 13.7451 14.0398 13.8606 14.0278 13.8606C14.0119 13.8606 12.7652 13.3548 11.881 12.9884C11.7217 12.9247 11.5903 12.8769 11.5903 12.8848C11.5903 12.8928 11.9846 13.2672 12.4665 13.7212C12.9484 14.1713 13.3428 14.5537 13.3428 14.5696C13.3388 14.5855 13.2273 14.721 13.0878 14.8723L12.8369 15.1511L11.2079 13.6217C10.3117 12.7852 9.53905 12.0604 9.48727 12.0126L9.39567 11.9249L9.62269 11.674C9.80989 11.4709 9.86565 11.4311 9.94133 11.447C9.98912 11.4589 10.5189 11.67 11.1163 11.909C11.7137 12.152 12.2156 12.3431 12.2315 12.3392C12.2474 12.3312 11.877 11.9688 11.407 11.5306C10.9371 11.0925 10.5547 10.7261 10.5547 10.7141C10.5547 10.6544 10.9968 10.2123 11.0605 10.2083C11.1083 10.2043 11.3393 10.3955 11.6779 10.7062ZM45.1465 10.4353L45.3775 10.6703L44.8757 11.7776C44.6008 12.387 44.3619 12.9207 44.3459 12.9645C44.33 13.0083 44.7044 12.6618 45.1784 12.1918L46.0347 11.3394L46.2697 11.5904C46.4011 11.7338 46.5007 11.8771 46.5007 11.9289C46.5007 11.9887 46.0188 12.4865 44.8677 13.6137L43.2347 15.2109L42.9838 14.9639L42.7328 14.713L43.2745 13.542C43.5693 12.9008 43.8082 12.367 43.8003 12.3631C43.7923 12.3551 43.402 12.7255 42.924 13.1875L42.0597 14.0239L41.8128 13.7571C41.6734 13.6137 41.5579 13.4783 41.5499 13.4623C41.538 13.4305 44.8398 10.1963 44.8836 10.1963C44.8996 10.1963 45.0151 10.3039 45.1465 10.4353ZM47.9704 13.7372C48.4125 14.3545 48.5758 14.6094 48.5599 14.6612C48.532 14.7289 48.1018 15.0555 48.0421 15.0555C48.0262 15.0515 47.9266 14.9281 47.819 14.7767C47.7115 14.6214 47.608 14.4979 47.588 14.4979C47.5681 14.4979 47.1698 14.7727 46.7078 15.1073C44.6765 16.577 44.4097 16.7682 44.3738 16.7682C44.3579 16.7682 44.2942 16.7005 44.2384 16.6168C44.1826 16.5372 44.0831 16.3978 44.0153 16.3062L43.8959 16.1429L44.8 15.4936C45.2979 15.1312 46.0228 14.6094 46.4131 14.3266L47.1181 13.8168L46.903 13.5062L46.6839 13.1955L46.9707 12.9924C47.1977 12.8291 47.2654 12.7972 47.3053 12.837C47.3331 12.8609 47.6319 13.2672 47.9704 13.7372ZM8.95356 13.0561C9.09296 13.1557 9.19652 13.2552 9.18855 13.2831C9.17661 13.307 9.02924 13.5221 8.86195 13.7571C8.69467 13.9961 8.56722 14.2072 8.57518 14.235C8.5951 14.2868 9.45939 14.8962 9.51117 14.8962C9.53109 14.8962 9.66651 14.7249 9.81388 14.5178C9.96124 14.3107 10.0967 14.1315 10.1166 14.1195C10.1365 14.1076 10.2799 14.1872 10.4312 14.2988L10.71 14.5019L10.4113 14.9201C10.244 15.1511 10.1166 15.3463 10.1245 15.3542C10.1843 15.41 11.1721 16.0911 11.188 16.0911C11.1999 16.0911 11.3553 15.884 11.5265 15.633C11.7257 15.3463 11.8691 15.175 11.9129 15.175C12.0204 15.175 12.4705 15.5016 12.4506 15.5613C12.4307 15.6131 11.419 17.0629 11.3473 17.1426C11.3234 17.1665 7.70292 14.6692 7.51174 14.4939C7.48784 14.474 7.53564 14.3744 7.62326 14.251C7.7069 14.1355 7.96181 13.769 8.1968 13.4345C8.4318 13.0999 8.63891 12.841 8.66281 12.8569C8.68272 12.8689 8.81416 12.9605 8.95356 13.0561ZM7.61529 15.9477L8.12113 16.2145L7.94588 16.573L7.76665 16.9275L7.4042 16.7443C7.20505 16.6447 7.03777 16.569 7.0298 16.577C6.99794 16.6128 6.68727 17.2541 6.69922 17.2621C6.76295 17.3099 9.56295 18.7198 9.59481 18.7198C9.63464 18.7198 9.97718 18.0865 9.9493 18.0626C9.94133 18.0586 9.71032 17.9352 9.43151 17.7878L8.9217 17.5209L8.81416 17.74C8.75441 17.8635 8.69069 17.9631 8.66679 17.9631C8.63493 17.9631 8.13308 17.7002 8.09325 17.6643C8.0574 17.6285 8.62696 16.573 8.69069 16.5571C8.77831 16.5332 10.6702 17.4931 10.7658 17.6086C10.8016 17.6564 10.8335 17.748 10.8335 17.8157C10.8335 17.9471 10.0887 19.4367 9.95328 19.5761C9.8537 19.6797 9.61075 19.6757 9.43151 19.5682C9.35982 19.5244 8.56722 19.1141 7.66707 18.6561C6.77091 18.202 5.98627 17.7798 5.92653 17.7201C5.85882 17.6564 5.81501 17.5687 5.81501 17.505C5.81501 17.3537 6.59566 15.8322 6.72312 15.7286C6.88243 15.6052 7.03379 15.645 7.61529 15.9477ZM49.229 15.7446C49.2768 15.7924 49.4919 16.1548 49.7109 16.5491C50.1252 17.3099 50.177 17.4732 50.0375 17.6365C49.934 17.7559 48.9104 18.2976 48.8705 18.2578C48.8188 18.202 48.5001 17.6006 48.5161 17.5887C48.524 17.5807 48.6873 17.4931 48.8825 17.3895C49.0737 17.286 49.229 17.1824 49.229 17.1625C49.229 17.0908 48.9303 16.569 48.8905 16.573C48.8705 16.573 48.7192 16.6487 48.5559 16.7403L48.2612 16.9076L48.0102 17.8475C47.7553 18.8154 47.7195 18.911 47.5801 19.0026C47.2893 19.1858 46.4011 19.6478 46.2936 19.6638C46.0984 19.6956 45.955 19.5204 45.5368 18.7397C45.1226 17.9591 45.1027 17.9153 45.1664 17.7679C45.2142 17.6484 45.2062 17.6564 45.9272 17.2581L46.433 16.9793L46.6162 17.3138C46.7158 17.4971 46.7994 17.6603 46.7994 17.6763C46.7994 17.6922 46.6202 17.7998 46.3971 17.9153L45.9989 18.1264L46.1701 18.445C46.2617 18.6163 46.3454 18.7596 46.3573 18.7557C46.3693 18.7557 46.5326 18.668 46.7198 18.5645L47.0583 18.3733L47.2973 17.4811C47.4287 16.9912 47.5602 16.5332 47.588 16.4695C47.6478 16.3221 47.8151 16.2185 48.7311 15.7366C48.9422 15.6251 49.1175 15.6291 49.229 15.7446ZM6.97802 19.8709C7.59538 20.1059 7.94986 20.6436 7.92198 21.3007C7.86224 22.5593 6.24915 23.1488 5.32112 22.2447C4.7675 21.707 4.73165 20.8467 5.23748 20.2811C5.4207 20.078 5.77518 19.8629 6.03805 19.7952C6.26508 19.7394 6.71913 19.7753 6.97802 19.8709ZM50.2327 20.0501C51.1806 20.5241 51.3639 21.719 50.6031 22.4199C50.2925 22.7027 50.0216 22.7983 49.5476 22.8023C49.2051 22.8023 49.1454 22.7904 48.9064 22.6788C48.5519 22.5076 48.3408 22.3084 48.1855 21.9938C48.0102 21.6393 47.9824 21.2052 48.1138 20.8626C48.2134 20.5918 48.528 20.2254 48.763 20.1059C49.0976 19.9386 49.1971 19.9147 49.6074 19.9266C49.9499 19.9386 50.0375 19.9545 50.2327 20.0501ZM5.77518 24.1565C6.68329 24.2561 7.45199 24.3357 7.47987 24.3357C7.51174 24.3357 7.52369 24.3716 7.51174 24.4234C7.49979 24.4751 7.47191 24.7221 7.44801 24.977L7.40022 25.435L6.14161 25.6262C5.44459 25.7298 4.87105 25.8214 4.86707 25.8293C4.83919 25.8532 4.99851 25.917 6.09381 26.3272C6.69524 26.5542 7.20505 26.7494 7.22098 26.7653C7.24488 26.7852 7.14531 27.8447 7.11743 27.8606C7.11344 27.8646 6.29694 27.777 5.30121 27.6655L3.49296 27.4663L3.51685 27.1477C3.53278 26.9764 3.54872 26.8251 3.56067 26.8171C3.57261 26.8051 4.76351 26.9246 6.14161 27.08C6.28898 27.0959 6.4005 27.0999 6.38855 27.0879C6.3766 27.076 5.75526 26.837 5.00647 26.5622L3.64431 26.0564L3.65626 25.8652C3.66422 25.7576 3.68414 25.5983 3.70007 25.5107L3.72397 25.3514L5.19765 25.1522C6.25313 25.0128 6.63549 24.9451 6.55185 24.9252C6.48414 24.9093 5.91458 24.8416 5.27731 24.7739C3.72795 24.6106 3.77574 24.6185 3.79964 24.5389C3.80761 24.503 3.82752 24.3556 3.84345 24.2083L3.86735 23.9414L3.99481 23.9613C4.0665 23.9733 4.86707 24.0609 5.77518 24.1565ZM52.1166 24.4194C52.1326 24.6185 52.1286 24.7938 52.1127 24.8137C52.0927 24.8296 51.5829 25.208 50.9815 25.6541C50.0933 26.3152 49.9061 26.4706 49.9858 26.4785C50.0415 26.4825 50.5792 26.4427 51.1806 26.3909C51.7821 26.3352 52.276 26.2953 52.2799 26.2993C52.2839 26.3033 52.2999 26.4547 52.3118 26.6339C52.3397 26.9366 52.3357 26.9645 52.268 26.9645C52.2282 26.9645 51.4077 27.0362 50.4438 27.1198C49.4799 27.2074 48.6913 27.2751 48.6873 27.2712C48.6833 27.2672 48.6714 27.1078 48.6555 26.9167L48.6276 26.5702L49.3365 26.0444C49.7269 25.7537 50.2486 25.3673 50.4956 25.1801C50.7465 24.9969 50.9417 24.8416 50.9337 24.8336C50.9297 24.8296 50.4637 24.8655 49.9061 24.9133C49.3485 24.965 48.8028 25.0128 48.6913 25.0168L48.4922 25.0288L48.4643 24.7141C48.4523 24.5389 48.4444 24.3915 48.4523 24.3835C48.4603 24.3756 51.7661 24.0729 51.9812 24.0609C52.0888 24.0569 52.0888 24.0609 52.1166 24.4194ZM52.3875 28.3864C52.3755 28.5815 52.3476 28.7568 52.3198 28.7807C52.2959 28.8046 52.1007 28.8763 51.8896 28.936C51.4356 29.0674 51.4873 28.9639 51.4156 29.9078C51.3917 30.2424 51.3878 30.5332 51.4077 30.5491C51.4236 30.569 51.6028 30.6527 51.798 30.7443L52.1565 30.9036L52.1445 31.274C52.1405 31.4771 52.1286 31.6484 52.1206 31.6564C52.1127 31.6643 51.3201 31.2939 50.3602 30.8359L48.6117 29.9995L48.6196 29.6091C48.6276 29.398 48.6356 29.2188 48.6395 29.2148C48.6595 29.1989 52.3158 28.0478 52.3596 28.0438C52.3915 28.0399 52.3994 28.1394 52.3875 28.3864ZM6.50406 28.8484C7.04972 29.1192 7.32056 29.5175 7.42013 30.1986C7.49979 30.7642 7.36437 31.2501 7.0059 31.6404C6.62354 32.0586 6.10178 32.2379 5.33705 32.214C4.92283 32.202 4.85512 32.1901 4.61216 32.0746C4.0665 31.8197 3.75981 31.3815 3.66024 30.7283C3.57261 30.1189 3.70405 29.637 4.07048 29.2467C4.46877 28.8285 4.93478 28.6731 5.71942 28.6891C6.1894 28.701 6.2133 28.705 6.50406 28.8484ZM50.2247 32.3454C51.1329 32.6123 51.8896 32.8433 51.9055 32.8552C51.9294 32.8751 51.798 33.4407 51.7622 33.4845C51.7582 33.4885 51.1448 33.3132 50.404 33.0982C49.6592 32.8791 49.0338 32.6999 49.0099 32.6999C48.99 32.6999 49.5198 33.0225 50.1849 33.4128C50.854 33.8071 51.4316 34.1497 51.4714 34.1815C51.5391 34.2293 51.5391 34.2453 51.4555 34.532C51.4077 34.6953 51.3559 34.8467 51.34 34.8626C51.324 34.8785 50.7266 34.8666 50.0057 34.8307C48.6356 34.767 48.3687 34.7591 48.3966 34.7869C48.4045 34.7949 49.006 34.9781 49.7269 35.1892C50.4518 35.4043 51.0612 35.5875 51.0851 35.6034C51.1488 35.6393 50.9696 36.2248 50.8979 36.2208C50.866 36.2168 50.1889 36.0256 49.3883 35.7866C48.5878 35.5517 47.835 35.3326 47.7155 35.2967C47.596 35.2649 47.4805 35.2251 47.4646 35.2091C47.4447 35.1932 47.5004 34.9502 47.5801 34.6714L47.7314 34.1656L49.0299 34.1935C50.1451 34.2174 50.3124 34.2134 50.2447 34.1656C50.2008 34.1337 49.707 33.831 49.1494 33.4965C48.5917 33.1619 48.1297 32.8831 48.1218 32.8791C48.1098 32.8672 48.3886 31.9033 48.4205 31.8515C48.4324 31.8356 48.4683 31.8276 48.5041 31.8396C48.5439 31.8515 49.3166 32.0785 50.2247 32.3454ZM7.95384 33.3969C8.34815 34.7152 8.38798 34.9701 8.24858 35.2689C8.0813 35.6433 7.67504 35.8663 7.21302 35.8384C6.8665 35.8185 6.65142 35.6871 6.46423 35.3764L6.34075 35.1653L6.27703 35.3565C6.24118 35.46 6.16152 35.6233 6.10178 35.715C5.99026 35.8862 5.16579 36.8421 5.14986 36.8262C5.14189 36.8182 5.08613 36.639 5.01842 36.4199C4.92283 36.1013 4.91088 36.0137 4.95071 35.9579C4.97859 35.9221 5.20163 35.6433 5.45256 35.3406C5.70348 35.0379 5.9345 34.7312 5.96636 34.6515C6.0261 34.5002 6.01017 34.2572 5.92653 34.062L5.87475 33.9465L5.16181 34.1616C4.7675 34.2771 4.43293 34.3608 4.417 34.3448C4.36522 34.2891 4.22183 33.7195 4.2537 33.6916C4.26963 33.6757 4.7197 33.5363 5.2574 33.377C5.79509 33.2177 6.54787 32.9946 6.93023 32.8791C7.31259 32.7596 7.65114 32.668 7.683 32.672C7.71885 32.676 7.81444 32.9349 7.95384 33.3969ZM48.2492 36.5593C49.4082 37.1687 49.5835 37.2763 49.7946 37.5113C49.9858 37.7223 50.0375 37.9016 50.0176 38.276C50.0017 38.5388 49.9738 38.6344 49.8344 38.9172C49.5198 39.5465 49.1892 39.8253 48.7192 39.8572C48.4961 39.8731 48.4045 39.8572 48.1735 39.7736C47.9664 39.6939 45.8913 38.6424 45.8116 38.5707C45.8037 38.5667 45.8714 38.4154 45.963 38.2401L46.1303 37.9175L46.5365 38.1326C47.6239 38.7141 48.4284 39.1084 48.5599 39.1323C49.0458 39.2199 49.5397 38.4711 49.2848 38.041C49.1932 37.8896 49.002 37.7741 47.8748 37.1847C47.3371 36.9019 46.8831 36.6589 46.8631 36.639C46.8273 36.6071 47.1141 36.0057 47.1658 36.0057C47.1818 36.0057 47.6677 36.2566 48.2492 36.5593ZM10.0767 38.6145C10.0767 38.6384 9.96523 38.7141 9.82582 38.7818L9.5749 38.9053L9.14076 38.033C8.8978 37.5551 8.69069 37.1608 8.67077 37.1608C8.60306 37.1608 7.96579 37.4794 7.96579 37.5113C7.96579 37.5312 8.13706 37.8976 8.34417 38.3238C8.55128 38.7499 8.72255 39.1164 8.72255 39.1363C8.72255 39.1602 8.61103 39.2319 8.47163 39.2996L8.2207 39.4231L7.80648 38.5946L7.39225 37.7662L6.95413 37.9852C6.71117 38.1047 6.50804 38.2083 6.50007 38.2162C6.49211 38.2202 6.68727 38.6344 6.92625 39.1323C7.16921 39.6302 7.36039 40.0484 7.35242 40.0643C7.32454 40.1041 6.85455 40.3232 6.83464 40.3033C6.82667 40.2953 6.54787 39.7337 6.21728 39.0606L5.61984 37.8299L7.26081 37.0214L8.90178 36.2128L9.49126 37.3918C9.81388 38.037 10.0767 38.5906 10.0767 38.6145ZM46.8592 40.4307C47.6478 41.0441 48.289 41.5619 48.2851 41.5738C48.2811 41.5898 48.1815 41.7212 48.07 41.8686L47.8589 42.1354L47.6 41.9283C47.4566 41.8168 47.1698 41.5898 46.9627 41.4305C46.7596 41.2672 46.5804 41.1516 46.5604 41.1716C46.5445 41.1875 46.3374 41.4504 46.1024 41.7531L45.6762 42.3027L45.7878 42.3903C45.8515 42.4381 46.1263 42.6532 46.4011 42.8683C46.6759 43.0834 46.907 43.2785 46.9109 43.2984C46.9229 43.3303 46.5365 43.8521 46.4967 43.8521C46.4808 43.8521 43.7485 41.7252 43.6609 41.6455C43.621 41.6057 43.6489 41.542 43.8162 41.3309C43.9277 41.1835 44.0353 41.064 44.0552 41.064C44.0751 41.064 44.334 41.2552 44.6287 41.4862C44.9274 41.7172 45.1824 41.9004 45.2023 41.8925C45.2461 41.8765 46.0785 40.8171 46.0825 40.7773C46.0825 40.7494 46.0108 40.6896 45.3536 40.1718L44.9673 39.8652L45.1744 39.5903C45.2899 39.439 45.3934 39.3155 45.4054 39.3155C45.4173 39.3115 46.0705 39.8174 46.8592 40.4307ZM11.6779 40.8171L11.9009 41.0879L11.3473 41.5579L10.7937 42.0239L11.1999 42.5098C11.427 42.7767 11.6381 43.0276 11.6739 43.0714C11.7456 43.159 11.7177 43.179 12.7891 42.2709C12.8449 42.2231 12.8807 42.2509 13.0799 42.4819C13.2034 42.6293 13.3029 42.7607 13.295 42.7767C13.275 42.8245 10.5388 45.1266 10.5109 45.1186C10.4989 45.1107 10.3874 44.9912 10.2679 44.8478L10.0449 44.5849L10.6583 44.0711C10.9968 43.7844 11.2716 43.5494 11.2716 43.5414C11.2716 43.5295 10.7061 42.8563 10.3556 42.4501C10.3436 42.4302 10.0529 42.6532 9.71828 42.936L9.10093 43.4538L8.92966 43.2666C8.62298 42.924 8.61899 42.9121 8.74645 42.8006C8.81018 42.7488 9.4355 42.2191 10.1365 41.6256C10.8375 41.0322 11.419 40.5462 11.4309 40.5462C11.4429 40.5462 11.5544 40.6697 11.6779 40.8171ZM14.3783 43.645C14.4859 43.7366 14.5058 43.7764 14.4739 43.8162C14.45 43.8481 14.1274 44.2384 13.757 44.6885C12.8768 45.7599 12.825 45.8356 12.825 46.1024C12.825 46.2697 12.8489 46.3414 12.9445 46.4728C13.1795 46.7994 13.5937 46.9309 13.8685 46.7676C13.9681 46.7118 14.5177 46.0706 15.4258 44.9553L15.6449 44.6885L15.9237 44.9235L16.2065 45.1545L15.609 45.8873C14.3823 47.3889 14.1473 47.5881 13.6415 47.5442C13.3109 47.5203 13.048 47.3929 12.6816 47.0822C12.3391 46.7955 12.1678 46.5485 12.1041 46.2538C11.9965 45.728 12.0722 45.5966 13.279 44.1229L13.9561 43.2984L14.0955 43.414C14.1752 43.4777 14.3026 43.5812 14.3783 43.645ZM42.3624 43.8401C42.5616 44.099 43.0316 44.7204 43.4139 45.2182C43.7963 45.7161 44.1348 46.1582 44.1587 46.194C44.2025 46.2578 44.1747 46.2936 43.9198 46.4848L43.633 46.7078L42.4779 46.2657C41.8446 46.0188 41.2472 45.7918 41.1556 45.7519C41.06 45.7161 40.9843 45.7002 40.9843 45.7161C40.9843 45.732 41.2711 46.1184 41.6256 46.5764C41.9761 47.0344 42.2987 47.4606 42.3425 47.5203L42.4182 47.6279L42.1553 47.835C42.0119 47.9465 41.8885 48.0341 41.8845 48.0262C41.8765 48.0182 41.3906 47.377 40.7971 46.6003C40.2077 45.8236 39.7138 45.1664 39.6978 45.1425C39.6859 45.1226 39.7974 45.0071 39.9488 44.8916L40.2236 44.6845L41.5658 45.2023C42.3067 45.4891 42.92 45.7161 42.924 45.7081C42.932 45.7041 42.6014 45.262 42.1951 44.7283C41.7889 44.1986 41.4702 43.7485 41.4902 43.7286C41.6097 43.6131 41.9283 43.3781 41.9641 43.3741C41.988 43.3741 42.1673 43.5852 42.3624 43.8401ZM17.8116 46.0626C17.8753 46.1024 17.8594 46.198 17.5846 47.3371C17.4213 48.0182 17.2898 48.5838 17.2978 48.5957C17.3018 48.6077 17.4492 48.4643 17.6204 48.2771C17.7957 48.0899 18.19 47.6637 18.4967 47.3292L19.0543 46.7238L19.4765 46.9468C19.7075 47.0703 19.9265 47.1898 19.9624 47.2176C20.0221 47.2575 19.9863 47.3411 19.6199 48.0182C19.3968 48.4324 19.0105 49.1533 18.7635 49.6154C18.5126 50.0814 18.2935 50.4637 18.2776 50.4637C18.2577 50.4637 18.1263 50.4 17.9829 50.3203C17.7837 50.2088 17.724 50.161 17.7439 50.1092C17.7558 50.0734 18.0546 49.5118 18.4051 48.8546C18.7556 48.2014 19.0344 47.6598 19.0304 47.6558C19.0224 47.6478 18.5724 48.1337 18.0307 48.7312L17.0429 49.8185L16.7442 49.6552C16.5689 49.5596 16.4494 49.468 16.4494 49.4322C16.4494 49.3963 16.6088 48.7431 16.8079 47.9784C17.0031 47.2137 17.1465 46.6043 17.1265 46.6242C17.1106 46.6441 16.8039 47.1977 16.4494 47.8549C16.0989 48.5121 15.7923 49.0657 15.7723 49.0856C15.7405 49.1175 15.1669 48.8307 15.1869 48.7869C15.1908 48.775 15.5812 48.0461 16.0512 47.1699L16.9075 45.5727L17.3257 45.7997C17.5567 45.9232 17.7758 46.0427 17.8116 46.0626ZM39.4947 47.361C40.3032 48.0421 40.9804 48.6157 40.9963 48.6316C41.0162 48.6475 40.8728 48.7431 40.6856 48.8467L40.3391 49.0339L40.0085 48.7312L39.6739 48.4285L39.0247 48.775C38.6663 48.9661 38.3675 49.1255 38.3596 49.1334C38.3516 49.1414 38.3715 49.3445 38.4034 49.5875L38.4631 50.0256L38.1405 50.2009L37.8179 50.3761L37.79 50.2686C37.7741 50.2128 37.6785 49.4561 37.5789 48.5918C37.4793 47.7275 37.3798 46.895 37.3599 46.7397C37.3399 46.5883 37.328 46.4609 37.332 46.4569C37.3559 46.437 37.9812 46.1263 38.0011 46.1223C38.0131 46.1223 38.6862 46.68 39.4947 47.361ZM36.1729 49.0538C36.4518 49.9937 36.6828 50.7824 36.6828 50.8023C36.6828 50.862 36.0415 51.0373 36.0096 50.9895C35.9977 50.9656 35.8902 50.623 35.7707 50.2287C35.6512 49.8304 35.5397 49.5078 35.5197 49.5078C35.4759 49.5078 34.1655 49.9021 34.1456 49.9181C34.1377 49.926 34.2333 50.2606 34.3527 50.6669C34.4762 51.0691 34.5678 51.4156 34.5559 51.4395C34.5399 51.4834 33.9345 51.6745 33.9067 51.6427C33.8589 51.5949 32.8631 48.1775 32.887 48.1536C32.9587 48.0979 33.5084 47.9505 33.5323 47.9824C33.5482 47.9983 33.6478 48.305 33.7553 48.6595C33.8907 49.1215 33.9624 49.3087 34.0062 49.3087C34.0859 49.3087 35.3007 48.9462 35.3405 48.9144C35.3564 48.8984 35.2768 48.5838 35.1692 48.2174C35.0577 47.8469 34.9741 47.5403 34.986 47.5283C35.0179 47.4965 35.5835 47.3252 35.6233 47.3332C35.6432 47.3371 35.8902 48.1098 36.1729 49.0538ZM22.2128 47.8947C22.4955 47.9824 22.5433 48.0103 22.5473 48.0859C22.5473 48.1337 22.631 49.0179 22.7345 50.0495L22.9217 51.9294L22.7425 51.8737C22.6429 51.8418 22.4796 51.794 22.3761 51.7701L22.1889 51.7263L22.165 51.4236C22.153 51.2563 22.1291 51.0492 22.1132 50.9656L22.0853 50.8063L21.4281 50.6151C21.0657 50.5115 20.7431 50.4239 20.7112 50.4239C20.6793 50.4239 20.5439 50.5673 20.4165 50.7465C20.289 50.9218 20.1615 51.0771 20.1337 51.089C20.1018 51.097 19.9265 51.0612 19.7394 51.0054L19.4008 50.9019L20.5837 49.3485C21.233 48.4962 21.7945 47.7992 21.8224 47.7992C21.8543 47.7952 22.0295 47.839 22.2128 47.8947ZM32.3175 48.3807C32.3294 48.4205 32.3493 48.5519 32.3613 48.6754L32.3892 48.8984L31.8674 48.9701C31.5766 49.01 31.3377 49.0538 31.3297 49.0657C31.3217 49.0777 31.4094 49.7627 31.5209 50.5832L31.728 52.0768L31.3934 52.1286C31.1584 52.1684 31.0469 52.1684 31.031 52.1405C31.015 52.1166 30.9155 51.4475 30.8079 50.6549C30.7044 49.8583 30.6008 49.1932 30.5889 49.1772C30.5729 49.1573 30.326 49.1772 30.0392 49.2211L29.5175 49.2927L29.4936 49.1135C29.4776 49.0139 29.4577 48.8825 29.4498 48.8188C29.4378 48.759 29.4338 48.7112 29.4418 48.7073C29.4975 48.6913 32.1422 48.3209 32.2099 48.3169C32.2617 48.313 32.3055 48.3408 32.3175 48.3807ZM24.949 48.4962L25.1243 48.5201L25.7098 49.7986C26.2833 51.0452 26.367 51.2125 26.367 51.105C26.367 51.0094 26.6497 48.7351 26.6657 48.7192C26.6856 48.6993 27.2273 48.7551 27.2751 48.7869C27.299 48.8028 27.2392 49.4282 27.0998 50.5633C26.9803 51.5272 26.8847 52.3397 26.8847 52.3716C26.8847 52.4233 26.7334 52.4193 26.2873 52.3516L26.1479 52.3317L25.5544 51.0413C25.2239 50.3283 24.953 49.7548 24.949 49.7588C24.9371 49.7667 24.6543 52.0649 24.6543 52.1326C24.6543 52.1445 24.5029 52.1405 24.3157 52.1206L23.9772 52.0848L23.9971 51.9613C24.021 51.8219 24.4153 48.532 24.4153 48.4643C24.4153 48.4404 24.479 48.4324 24.5946 48.4484C24.6941 48.4603 24.8534 48.4842 24.949 48.4962Z" fill="#030E1F"/>
<path d="M25.4032 4.29763C25.2997 4.31356 25.2041 4.33746 25.1882 4.34941C25.1483 4.39322 25.2917 5.55225 25.3435 5.60403C25.3793 5.63988 25.4709 5.63988 25.7099 5.612C25.8852 5.5881 26.0325 5.56819 26.0365 5.56022C26.0445 5.55624 26.0166 5.26548 25.9768 4.91499L25.9091 4.2817L25.7498 4.27772C25.6621 4.27373 25.5068 4.2817 25.4032 4.29763ZM31.7042 4.48483C31.7042 4.50076 31.6485 4.85524 31.5808 5.26947C31.517 5.68767 31.4772 6.03817 31.4931 6.0541C31.529 6.08597 32.1423 6.18952 32.1583 6.16563C32.1623 6.16164 32.222 5.80318 32.2897 5.37701C32.3734 4.84728 32.4012 4.59237 32.3734 4.57245C32.3495 4.56051 32.23 4.53661 32.1065 4.52068C31.983 4.50873 31.8436 4.48483 31.7958 4.47288C31.7441 4.46093 31.7042 4.46492 31.7042 4.48483ZM41.6138 10.2999C41.3668 10.5349 41.1119 10.7739 41.0482 10.8336L40.9367 10.9412L41.1238 11.0885C41.2314 11.1682 41.327 11.2319 41.3389 11.2319C41.3549 11.2319 41.4903 11.0049 41.6376 10.7221C41.789 10.4433 41.9563 10.1406 42.012 10.045C42.0638 9.95339 42.0997 9.87771 42.0877 9.87771C42.0758 9.87771 41.8647 10.0689 41.6138 10.2999ZM27.2832 9.74229C26.0923 9.80602 25.0926 9.93347 24.0769 10.1446C18.5845 11.2877 13.8567 14.8803 11.3236 19.835C10.3 21.8384 9.70254 23.8339 9.41577 26.1878C9.33213 26.8968 9.30026 28.5855 9.35602 29.3542C9.65474 33.365 11.1523 37.0094 13.7452 40.0285C14.2431 40.61 15.3503 41.7093 15.892 42.1593C18.3694 44.2145 21.2929 45.6006 24.4155 46.198C25.7975 46.4609 26.2357 46.5007 27.9404 46.5007C29.6012 46.5007 29.9756 46.4728 31.2064 46.2578C34.5122 45.6802 37.5312 44.2743 40.1281 42.1076C40.7335 41.6017 42.0439 40.2515 42.5577 39.6103C44.0274 37.7662 45.0191 35.934 45.7401 33.7474C47.1978 29.3024 46.8553 24.4034 44.7881 20.1736C43.8681 18.2897 42.7807 16.7722 41.2832 15.2706C40.2596 14.243 39.5187 13.6296 38.4553 12.9167C35.8266 11.1682 32.8951 10.1207 29.7526 9.81797C29.1631 9.75822 27.7492 9.7184 27.2832 9.74229ZM29.3384 10.276C31.2143 10.4234 32.9827 10.8256 34.6914 11.4988C38.4394 12.9685 41.5898 15.6291 43.6411 19.0584C43.9278 19.5443 44.3819 20.3926 44.362 20.4126C44.354 20.4205 43.884 20.5798 43.3145 20.771C32.9588 24.2162 23.1091 24.2322 12.9168 20.8228C12.2596 20.6037 11.694 20.4086 11.6661 20.3887C11.6024 20.3528 11.7179 20.1019 12.1361 19.3571C12.9287 17.9591 13.9483 16.6407 15.1591 15.4538C16.601 14.0399 17.987 13.0561 19.7953 12.152C21.8863 11.1084 24.1884 10.4672 26.4866 10.28C27.092 10.2322 28.7409 10.2282 29.3384 10.276ZM11.9768 21.3087C12.4826 21.7946 13.335 22.5076 13.9523 22.9616C14.0997 23.0692 14.2192 23.1687 14.2192 23.1807C14.2192 23.1966 14.1196 23.3599 13.9961 23.5392C13.558 24.1963 13.2354 24.9571 13.0402 25.7895C12.9327 26.2396 12.9247 26.3192 12.9247 27.1835C12.9247 28.0478 12.9327 28.1275 13.0402 28.5776C13.2434 29.4339 13.5023 30.0473 13.9643 30.7403C14.7409 31.9033 15.9677 32.8114 17.3856 33.2694C18.2141 33.5403 20.7591 33.9465 22.5634 34.1019C23.356 34.1696 26.3193 34.1696 27.2633 34.0979C27.789 34.062 27.9802 34.0581 27.9921 34.0939C28.0041 34.1258 28.02 34.1258 28.0598 34.0939C28.0997 34.0581 28.6971 34.066 30.358 34.1178C34.2732 34.2373 35.8465 34.1019 37.8778 33.4686C39.0647 33.1022 39.7935 32.7915 40.3073 32.441C41.793 31.4293 42.7608 29.9397 43.0595 28.2032C43.1671 27.5659 43.1671 26.6339 43.0595 26.0086C42.8883 25.0407 42.6055 24.3357 42.0758 23.5511L41.8129 23.1648L41.9045 23.101C42.3426 22.8143 43.5614 21.7986 44.119 21.253L44.5691 20.8188L44.6527 21.014C46.23 24.6424 46.5645 28.6413 45.6046 32.4529C45.298 33.6757 44.9355 34.6674 44.3739 35.8265C43.4578 37.7144 42.3825 39.2319 40.9048 40.7056C37.7304 43.88 33.612 45.7201 28.9879 46.0228C28.7728 46.0347 28.5975 46.0387 28.5975 46.0268C28.5975 46.0148 28.6812 45.9471 28.7847 45.8794C29.43 45.4413 30.9196 44.2822 31.7122 43.6051C32.1742 43.2108 32.9389 42.4421 32.9389 42.3704C32.9389 42.3545 32.8792 42.3664 32.8115 42.3983C32.7398 42.4262 32.4132 42.5656 32.0826 42.709C31.4812 42.9639 31.0789 43.1073 30.8399 43.1511L30.7085 43.171L30.7324 39.8771C30.7483 38.0649 30.7603 36.5793 30.7643 36.5753C30.7682 36.5713 31.1745 36.5474 31.6644 36.5235C33.4567 36.4398 35.5756 36.2009 36.6072 35.9699C36.6948 35.9499 36.7625 35.942 36.7625 35.9539C36.7625 35.9898 36.42 36.4558 36.0337 36.9536C35.2769 37.9255 34.2254 39.1602 33.5603 39.8572L33.2177 40.2196V41.1795C33.2177 41.7053 33.2297 42.1394 33.2416 42.1394C33.3253 42.1394 33.7156 41.8049 34.1936 41.3269C35.2968 40.2157 36.8541 38.3756 38.2083 36.5793C39.3793 35.0259 40.1002 33.8151 39.8613 33.8151C39.8334 33.8151 39.459 33.8868 39.0288 33.9744C34.8627 34.8148 30.7045 35.1852 26.5862 35.0857C23.2325 35.006 19.9108 34.6117 16.7483 33.9187C16.4217 33.847 16.1429 33.7912 16.135 33.7992C16.127 33.8071 16.2106 33.9983 16.3222 34.2214C16.9754 35.5517 19.863 39.2757 21.6792 41.1317C22.3643 41.8327 22.7227 42.1195 22.7825 42.0199C22.8064 41.9881 22.8223 41.5619 22.8223 41.072V40.1878L22.4519 39.7775C21.2968 38.503 19.7793 36.6509 19.3811 36.0416L19.3133 35.934L19.5045 35.9699C20.5958 36.177 23.0971 36.4478 24.8257 36.5474L25.2917 36.5713V43.0913L25.1443 43.0674C24.7899 43.0117 23.8419 42.6851 23.0493 42.3425C22.9458 42.2987 23.1728 42.5975 23.4277 42.8364C24.1128 43.4976 25.8374 44.8637 27.2075 45.8356C27.546 46.0746 27.5819 46.0626 26.7256 46.0029C22.8223 45.728 19.2377 44.2902 16.2106 41.7889C15.5654 41.2552 14.3148 39.9886 13.8089 39.3554C12.2118 37.3559 11.1722 35.3605 10.4951 33.0185C9.4078 29.2467 9.61093 25.2558 11.0727 21.5676C11.2439 21.1374 11.3993 20.7909 11.4232 20.7909C11.4311 20.7909 11.6821 21.0259 11.9768 21.3087ZM14.8166 22.0137C15.3264 22.2009 16.5133 22.6151 18.1025 23.1608C23.0971 24.8734 24.7899 25.6939 27.8249 27.8925L28.028 28.0399L28.502 27.6774C30.1429 26.4228 31.9432 25.4032 33.9546 24.5946C34.9981 24.1724 35.6712 23.9374 38.6345 22.9616C39.4789 22.6828 40.4268 22.3562 40.7415 22.2407C41.0561 22.1212 41.319 22.0296 41.327 22.0336C41.3349 22.0456 40.9207 22.2646 36.185 24.742C32.4729 26.6857 31.2143 27.4942 29.9876 28.717C29.1233 29.5773 28.6015 30.338 28.2311 31.274C28.1395 31.513 28.0519 31.7041 28.0399 31.7041C28.024 31.7041 27.9842 31.6006 27.9443 31.4771C27.8328 31.1306 27.3907 30.2902 27.1119 29.9039C26.1958 28.6333 24.8337 27.5101 22.7426 26.3073C22.4479 26.136 20.4485 25.0726 18.3017 23.9454C16.1549 22.8182 14.3705 21.8783 14.3387 21.8584C14.267 21.8145 14.271 21.8145 14.8166 22.0137ZM15.7407 24.1963C16.366 24.6106 16.9913 25.0208 17.1227 25.1005L17.3657 25.2478L17.1865 25.4151C16.9236 25.6581 16.6527 26.0882 16.5173 26.4825C16.358 26.9286 16.3222 27.6217 16.4297 28.0996C16.7284 29.4458 18.0069 30.3977 19.5165 30.4017C20.787 30.4017 21.8584 29.6569 22.2488 28.4939C22.3005 28.3346 22.3443 28.1514 22.3443 28.0837C22.3443 28.016 22.3523 27.9602 22.3643 27.9602C22.4001 27.9602 23.7304 28.7767 24.2163 29.0953C26.2237 30.4256 27.1956 31.5528 27.7372 33.1898C27.9165 33.7275 27.9165 33.7434 27.7532 33.7155C27.6815 33.7036 26.4826 33.5682 25.0926 33.4168C22.2886 33.1061 20.9503 32.9229 19.9347 32.7198C17.8835 32.3056 16.5372 31.732 15.6809 30.9076C14.6892 29.9596 14.1515 28.9719 13.9324 27.7013C13.8647 27.2911 13.8527 27.1198 13.8727 26.4865C13.8966 25.7178 13.9523 25.3474 14.1594 24.5827C14.2829 24.1406 14.5418 23.4117 14.5776 23.4276C14.5896 23.4356 15.1114 23.7781 15.7407 24.1963ZM41.6815 23.7861C41.9045 24.272 42.0399 24.6783 42.1475 25.2239C42.263 25.8094 42.2709 26.8609 42.1634 27.4623C41.9204 28.8046 41.323 29.9756 40.4029 30.8956C39.7258 31.5727 38.4553 32.2259 37.0413 32.6202C35.7748 32.9707 34.4724 33.146 30.35 33.5164C29.4857 33.5921 28.6414 33.6717 28.4781 33.6956C28.3148 33.7155 28.1754 33.7235 28.1674 33.7155C28.1315 33.6837 28.502 32.676 28.7011 32.2657C29.2069 31.2063 29.8561 30.4694 30.9674 29.6928C31.1665 29.5574 31.7082 29.2069 32.1782 28.9161C32.6482 28.6253 33.1699 28.3027 33.3332 28.1952L33.6359 28.004L33.6798 28.2111C34.0303 29.9158 35.7748 30.8638 37.5193 30.3022C38.5628 29.9676 39.4948 29.0834 39.7617 28.1753C40.0206 27.299 39.7179 26.1997 38.989 25.3633L38.7899 25.1363L38.9611 25.0487C39.3793 24.8336 40.7096 23.9773 41.2433 23.575C41.3549 23.4914 41.4584 23.4236 41.4743 23.4236C41.4943 23.4197 41.5859 23.5869 41.6815 23.7861ZM18.3694 25.7098L18.5168 25.8094L18.4172 26.0285C18.0189 26.8968 18.4052 27.9244 19.2974 28.3625C19.5643 28.4939 19.5921 28.4979 20.0143 28.4979C20.4007 28.4979 20.4764 28.4859 20.6715 28.3943C20.9424 28.2669 21.257 28.012 21.4283 27.777C21.504 27.6814 21.5677 27.6057 21.5717 27.6137C21.5796 27.6217 21.5597 27.7451 21.5278 27.8925C21.4004 28.5098 20.9185 29.0913 20.2892 29.398C19.9546 29.5613 19.9108 29.5733 19.5284 29.5852C19.2217 29.5972 19.0744 29.5852 18.9111 29.5335C18.3654 29.3542 17.8994 28.9878 17.5688 28.482C17.0112 27.6177 17.1586 26.5861 17.9512 25.8293C18.0786 25.7098 18.1902 25.6103 18.2021 25.6103C18.2141 25.6103 18.2897 25.6541 18.3694 25.7098ZM38.1844 25.8891C38.5429 26.3352 38.7381 26.8012 38.7779 27.3229C38.8735 28.4899 37.9933 29.4458 36.7108 29.5773C35.8465 29.6649 35.0539 29.0794 34.6874 28.0797C34.6237 27.9044 34.5719 27.7491 34.5719 27.7332C34.5719 27.7212 34.6795 27.8288 34.8149 27.9721C35.2251 28.4222 35.7708 28.6174 36.3284 28.5218C36.9219 28.4143 37.4078 28.0518 37.6667 27.53C37.814 27.2313 37.818 27.2194 37.818 26.7693C37.818 26.383 37.8021 26.2635 37.7264 26.0564L37.6308 25.8015L37.7224 25.7059C37.7742 25.6501 37.8499 25.6103 37.8937 25.6182C37.9375 25.6262 38.0689 25.7457 38.1844 25.8891Z" fill="#030E1F"/>
<path d="M15.0156 16.1907V16.6886H16.33V20.313H17.4452V16.6886H18.7197V15.6928H15.0156V16.1907ZM19.2853 15.7964C19.2375 15.892 19.2853 15.9756 20.0341 17.1585L20.8307 18.4171V20.313H21.9459V18.4052L22.7425 17.1426C23.5231 15.9119 23.5391 15.88 23.4793 15.7884C23.4156 15.6928 23.4076 15.6888 22.8739 15.7008L22.3323 15.7127L21.8782 16.4894C21.6313 16.9156 21.4122 17.2621 21.3963 17.2541C21.3803 17.2501 21.1613 16.8997 20.9064 16.4775L20.4483 15.7127L19.8907 15.7008L19.3291 15.6888L19.2853 15.7964ZM24.3635 15.7167C24.3476 15.7327 24.3357 16.7722 24.3357 18.0308V20.313H24.8893C25.427 20.313 25.4429 20.309 25.4668 20.2214C25.4788 20.1736 25.4907 19.7713 25.4907 19.3252V18.5207H25.7297C25.9368 18.5207 25.9846 18.5366 26.1041 18.6402C26.1798 18.7079 26.4785 19.1102 26.7652 19.5363L27.287 20.313H27.8566C28.6452 20.313 28.6412 20.3369 28.0916 19.4607C27.8605 19.0942 27.5738 18.688 27.4543 18.5605L27.2392 18.3295L27.4543 18.2299C27.7331 18.1025 27.98 17.8436 28.0836 17.5648C28.2031 17.2462 28.1792 16.7125 28.0278 16.4297C27.8406 16.0792 27.6415 15.9039 27.283 15.7884C27.0958 15.7287 26.8688 15.7167 25.7297 15.7008C24.9968 15.6928 24.3835 15.7008 24.3635 15.7167ZM26.7852 16.7443C26.9485 16.812 27.0042 16.9116 27.0042 17.1227C27.0042 17.2342 26.9763 17.3139 26.9086 17.3935L26.813 17.5051L26.1519 17.517L25.4907 17.529V16.6886H26.0682C26.4785 16.6886 26.6896 16.7045 26.7852 16.7443ZM29.3541 18.0029V20.313H32.891L32.9149 20.2214C32.9268 20.1736 32.9388 19.9506 32.9388 19.7235V19.3173H30.5092V18.4012L31.5965 18.3932L32.6799 18.3813V17.4254L31.5965 17.4134L30.5092 17.4055V16.6886H32.8631L32.8511 16.1987L32.8392 15.7127L31.0987 15.7008L29.3541 15.6928V18.0029ZM34.054 18.0228V20.313H37.3518L37.3757 20.2214C37.3877 20.1736 37.3996 19.9506 37.3996 19.7235V19.3173H35.209V15.7327H34.054V18.0228ZM38.3954 18.0228V20.313H41.6932L41.7171 20.2214C41.7291 20.1736 41.741 19.9506 41.741 19.7235V19.3173H39.5504V15.7327H38.3954V18.0228ZM50.1569 29.4498C49.7786 29.5614 49.4679 29.6609 49.4679 29.6729C49.4719 29.7047 50.7544 30.2743 50.7743 30.2504C50.7982 30.2265 50.8699 29.402 50.8539 29.3144C50.842 29.2547 50.7544 29.2746 50.1569 29.4498ZM5.25747 29.4498C4.77156 29.5454 4.51267 29.7167 4.35733 30.0513C4.15022 30.4934 4.28166 31.0231 4.668 31.2899C5.22163 31.6723 6.34879 31.4931 6.66743 30.9713C6.89445 30.6049 6.85064 30.0552 6.56785 29.7326C6.32888 29.4658 5.78322 29.3463 5.25747 29.4498ZM7.12945 33.5761C7.07369 33.596 6.89844 33.6478 6.7431 33.6956C6.58379 33.7394 6.45235 33.7992 6.45235 33.8231C6.45235 33.847 6.52404 34.0979 6.61565 34.3847C6.81081 35.006 6.90242 35.1295 7.17724 35.1295C7.41622 35.1295 7.59147 35.014 7.65121 34.8188C7.699 34.6515 7.69502 34.6436 7.46401 33.8629C7.35647 33.5204 7.34054 33.5044 7.12945 33.5761ZM38.0528 47.126C38.0648 47.1778 38.1126 47.4964 38.1604 47.835C38.2042 48.1735 38.248 48.4603 38.2599 48.4683C38.2838 48.4922 39.1282 48.0501 39.1402 48.0063C39.1442 47.9744 38.2082 47.13 38.0927 47.0663C38.0449 47.0384 38.0369 47.0543 38.0528 47.126ZM21.5835 49.1493C21.1812 49.695 21.0697 49.8543 21.0697 49.8742C21.0697 49.9021 22.0216 50.161 22.0375 50.1411C22.0534 50.1252 21.9579 48.8666 21.934 48.7511C21.93 48.7192 21.7746 48.8944 21.5835 49.1493Z" fill="#030E1F"/>
<path d="M76.1016 34H78.4609V24.6719H81.8438V22.7266H72.7188V24.6719H76.1016V34ZM87.0469 34H89.4062V29.7891L93.3359 22.7266H90.7812L88.3047 27.4688H88.1641L85.6797 22.7266H83.125L87.0469 29.7891V34ZM95.2578 34H97.6172V29.875H99.5469L101.648 34H104.32L101.945 29.5234C103.234 29.0156 103.984 27.7734 103.984 26.3281V26.3125C103.984 24.0938 102.516 22.7266 99.9531 22.7266H95.2578V34ZM97.6172 28.1562V24.5703H99.6641C100.844 24.5703 101.57 25.2734 101.57 26.3594V26.375C101.57 27.4844 100.875 28.1562 99.6953 28.1562H97.6172ZM106.367 34H113.836V32.0547H108.727V29.2031H113.547V27.3906H108.727V24.6719H113.836V22.7266H106.367V34ZM116.32 34H123.695V32.0547H118.68V22.7266H116.32V34ZM125.836 34H133.211V32.0547H128.195V22.7266H125.836V34ZM144.266 34.2891C146.984 34.2891 148.914 32.6797 149.156 30.3203L149.164 30.2344H146.867L146.852 30.2969C146.602 31.5 145.625 32.2891 144.273 32.2891C142.492 32.2891 141.391 30.7891 141.391 28.3672V28.3516C141.391 25.9297 142.492 24.4375 144.266 24.4375C145.609 24.4375 146.617 25.2969 146.859 26.5625V26.6172H149.156V26.5234C148.938 24.1406 146.938 22.4375 144.266 22.4375C140.992 22.4375 138.977 24.6953 138.977 28.3516V28.3672C138.977 32.0234 141 34.2891 144.266 34.2891ZM156.266 34.2891C159.594 34.2891 161.688 32.0078 161.688 28.3672V28.3516C161.688 24.7109 159.586 22.4375 156.266 22.4375C152.945 22.4375 150.836 24.7031 150.836 28.3516V28.3672C150.836 32.0078 152.914 34.2891 156.266 34.2891ZM156.266 32.2891C154.406 32.2891 153.242 30.75 153.242 28.3672V28.3516C153.242 25.9609 154.43 24.4375 156.266 24.4375C158.094 24.4375 159.281 25.9609 159.281 28.3516V28.3672C159.281 30.75 158.102 32.2891 156.266 32.2891ZM163.93 34H166.289V29.875H168.219L170.32 34H172.992L170.617 29.5234C171.906 29.0156 172.656 27.7734 172.656 26.3281V26.3125C172.656 24.0938 171.188 22.7266 168.625 22.7266H163.93V34ZM166.289 28.1562V24.5703H168.336C169.516 24.5703 170.242 25.2734 170.242 26.3594V26.375C170.242 27.4844 169.547 28.1562 168.367 28.1562H166.289ZM175.039 34H177.398V30.4453H179.688C182.062 30.4453 183.648 28.9141 183.648 26.5938V26.5781C183.648 24.2578 182.062 22.7266 179.688 22.7266H175.039V34ZM179.109 24.5938C180.461 24.5938 181.258 25.3047 181.258 26.5859V26.6016C181.258 27.8828 180.461 28.6016 179.109 28.6016H177.398V24.5938H179.109Z" fill="#0C2744"/>
</svg>
