<svg width="14" height="14" viewBox="0 0 14 14" fill="none" xmlns="http://www.w3.org/2000/svg">
<path fill-rule="evenodd" clip-rule="evenodd" d="M12.9759 1.07691C13.1235 0.858834 13.0766 0.563664 12.8688 0.401997L12.7582 0.316028C12.5306 0.13898 12.2008 0.190677 12.0382 0.428885L6.93649 7.90559C6.74205 8.19055 6.32428 8.19764 6.12028 7.91946L4.64235 5.9041C4.47577 5.67695 4.15452 5.63217 3.93217 5.80511L3.81463 5.89653C3.6039 6.06043 3.5591 6.36095 3.71285 6.57919L6.12116 9.99743C6.32263 10.2834 6.74793 10.2794 6.94399 9.98969L12.9759 1.07691ZM9.34462 2.77145C9.61845 2.39805 9.28141 1.88516 8.83001 1.98834L6.74089 2.46585C6.67316 2.48133 6.60295 2.48253 6.53473 2.46936L1.53292 1.5041C1.22447 1.44457 0.938179 1.6809 0.938179 1.99504V7.88932C0.938179 9.88932 3.83818 13.7893 6.53818 13.7893C9.23818 13.7893 12.1382 9.58932 12.1382 7.88932V5.61472C12.1382 5.14208 11.543 4.9333 11.2477 5.30237L11.0477 5.55237C10.9768 5.64102 10.9382 5.75118 10.9382 5.86472V7.88932C10.9382 9.08932 8.73818 12.4893 6.53818 12.4893C4.33818 12.4893 2.13818 9.28932 2.13818 7.88932V3.48843C2.13818 3.17648 2.4207 2.94069 2.72762 2.9965L6.44427 3.67225C6.50632 3.68353 6.56993 3.68297 6.63177 3.67061L8.84783 3.22739C8.97028 3.20291 9.07913 3.13348 9.15297 3.03279L9.34462 2.77145Z" fill="#3FBA8D"/>
</svg>
