<svg width="120" height="30" viewBox="0 0 120 30" fill="none" xmlns="http://www.w3.org/2000/svg">
<path d="M38.6463 4.43865C38.6463 5.30402 38.3904 5.99314 37.878 6.50721C37.2959 7.11847 36.5374 7.42434 35.6048 7.42434C34.7118 7.42434 33.9525 7.11448 33.3281 6.49388C32.7026 5.87375 32.3904 5.10474 32.3904 4.18723C32.3904 3.26931 32.7026 2.50077 33.3281 1.88012C33.9525 1.26003 34.7118 0.949707 35.6048 0.949707C36.048 0.949707 36.4722 1.03651 36.875 1.20962C37.2778 1.38314 37.6009 1.61348 37.8426 1.90194L37.2987 2.44701C36.8891 1.95681 36.3251 1.71189 35.6048 1.71189C34.9535 1.71189 34.3904 1.94112 33.9151 2.39985C33.4397 2.85904 33.202 3.45453 33.202 4.18723C33.202 4.91998 33.4397 5.51542 33.9151 5.97466C34.3904 6.4334 34.9535 6.66257 35.6048 6.66257C36.2958 6.66257 36.8718 6.43214 37.333 5.97063C37.6324 5.66996 37.8055 5.25203 37.8518 4.71536H35.6048V3.97096H38.6031C38.6321 4.13283 38.6462 4.28815 38.6462 4.43865" fill="black"/>
<path d="M38.6463 4.43866H38.5432C38.5423 5.28431 38.2957 5.94112 37.8051 6.4342L37.804 6.43503L37.8035 6.43587C37.24 7.02606 36.5156 7.31982 35.6048 7.32107C34.7356 7.31982 34.0081 7.02286 33.4006 6.42088C32.7944 5.81769 32.4947 5.08131 32.4935 4.18725C32.4947 3.29277 32.7944 2.55681 33.4006 1.95404C34.0081 1.35163 34.7356 1.05426 35.6048 1.05301C36.0347 1.05301 36.444 1.13703 36.8343 1.30442C37.225 1.47312 37.5336 1.69417 37.7636 1.96861L37.8426 1.90195L37.7697 1.82893L37.2258 2.37438L37.2987 2.44703L37.3781 2.38092C36.9494 1.86644 36.3477 1.60709 35.6049 1.60862C34.9294 1.60778 34.3352 1.84954 33.8437 2.32568C33.3475 2.80335 33.0981 3.43235 33.099 4.18725C33.0981 4.94219 33.3475 5.57114 33.8437 6.04886C34.3352 6.525 34.9294 6.76671 35.6048 6.76588C36.3186 6.76713 36.927 6.52458 37.4059 6.04366C37.7257 5.72243 37.907 5.27749 37.9546 4.72424L37.9642 4.61209H35.708V4.07426H38.6031V3.97097L38.5016 3.98912C38.5298 4.14575 38.5432 4.29457 38.5432 4.43866H38.7494C38.7494 4.28167 38.7348 4.12031 38.7046 3.9525L38.6893 3.86769H35.5018V4.81866H37.8518V4.71538L37.7491 4.70651C37.7036 5.22624 37.5384 5.61761 37.2601 5.89767C36.817 6.33983 36.2732 6.55805 35.6049 6.5593C34.9777 6.55847 34.4456 6.34219 33.9868 5.90041C33.5324 5.4602 33.3064 4.89818 33.3052 4.18725C33.3064 3.47631 33.5324 2.9143 33.9868 2.47409C34.4456 2.0323 34.9777 1.81603 35.6049 1.81519C36.3022 1.81686 36.8287 2.04762 37.2199 2.51364L37.2924 2.59998L37.9155 1.97502L37.9824 1.90808L37.9215 1.83576C37.6682 1.53323 37.3306 1.2931 36.9157 1.11484C36.5 0.936029 36.0613 0.846437 35.6049 0.846437C34.6881 0.845648 33.8969 1.16841 33.2552 1.80716C32.6111 2.44466 32.2865 3.24597 32.2874 4.18725C32.2865 5.1281 32.6111 5.92988 33.2556 6.56775C33.8969 7.20608 34.6881 7.52848 35.6049 7.52764C36.5596 7.52848 37.3516 7.21087 37.9526 6.57862L37.878 6.50722L37.9509 6.58029C38.4851 6.04566 38.75 5.32344 38.7494 4.43866H38.6463ZM43.3995 1.84992H40.5818V3.81491H43.1228V4.55959H40.5818V6.52458H43.3995V7.28593H39.7874V1.08857H43.3995V1.84992Z" fill="black"/>
<path d="M43.3995 1.84999V1.7467H40.4787V3.91826H43.0197V4.45609L40.4786 4.45637V6.62793H43.2964V7.18271H39.8906V1.19192H43.2964V1.84999H43.3995H43.5026V0.985352H39.6843V7.38928H43.5026V6.42136H40.6849V4.66294H43.226V3.71169H40.6849V1.95327H43.5026V1.84999H43.3995ZM46.7522 7.28604H45.9567V1.84994H44.2285V1.08859H48.4804V1.84994H46.7522V7.28595" fill="black"/>
<path d="M46.7522 7.28604V7.18271H46.0597V1.7467H44.3316V1.19197H48.3772V1.7467H46.6491V7.286H46.7522H46.8553V1.95327H48.5834V0.985352H44.1254V1.95322H45.8535V7.38924H46.8553V7.28595H46.7522M51.5567 7.28604V1.08859H52.3514V7.28595H51.5567" fill="black"/>
<path d="M51.5567 7.28604H51.6599V1.19192H52.2483V7.18271H51.5567V7.286V7.38928H52.4546V0.985352H51.4536V7.38928H51.5567V7.286M55.8782 7.28604H55.0826V1.84994H53.3545V1.08859H57.6063V1.84994H55.8782V7.28595" fill="black"/>
<path d="M55.8782 7.28596V7.18263H55.1857V1.74661H53.4577V1.19188H57.5032V1.74661H55.7751V7.28591H55.8782H55.9813V1.95318H57.7094V0.985265H53.2515V1.95314H54.9795V7.38915H55.9813V7.28587H55.8782M61.7055 5.96622C62.1634 6.43056 62.7238 6.66253 63.3865 6.66253C64.0491 6.66253 64.6098 6.43056 65.067 5.96622C65.5254 5.50182 65.7551 4.90819 65.7551 4.18723C65.7551 3.46632 65.5254 2.87269 65.067 2.40829C64.6098 1.9439 64.0491 1.71189 63.3865 1.71189C62.7238 1.71189 62.1634 1.9439 61.7055 2.40829C61.2482 2.87269 61.0187 3.46627 61.0187 4.18723C61.0187 4.90819 61.2482 5.50182 61.7055 5.96622ZM65.6551 6.48502C65.0468 7.11156 64.2904 7.42434 63.3865 7.42434C62.4817 7.42434 61.7255 7.11156 61.1186 6.48502C60.5099 5.85917 60.207 5.09309 60.207 4.18723C60.207 3.28138 60.5099 2.51516 61.1186 1.88945C61.7256 1.26277 62.4817 0.949707 63.3865 0.949707C64.2856 0.949707 65.04 1.26444 65.6511 1.89349C66.2614 2.52249 66.5667 3.28704 66.5667 4.18723C66.5667 5.09309 66.2621 5.85917 65.6551 6.48502Z" fill="black"/>
<path d="M61.7055 5.96623L61.6321 6.03884C62.1071 6.5218 62.6997 6.76713 63.3865 6.76588C64.0729 6.76713 64.6662 6.5218 65.1404 6.03884C65.6185 5.55541 65.8589 4.93003 65.8582 4.18725C65.8589 3.44452 65.6185 2.81909 65.1404 2.33566C64.6662 1.8527 64.0729 1.60741 63.3865 1.60862C62.6997 1.60741 62.1071 1.8527 61.6321 2.33566C61.1552 2.81909 60.9143 3.44452 60.9155 4.18725C60.9143 4.92998 61.1552 5.55541 61.6321 6.03884L61.7055 5.96623L61.7788 5.89358C61.3414 5.44771 61.1226 4.88686 61.1218 4.18725C61.1226 3.48769 61.3414 2.92683 61.7788 2.48091C62.2203 2.03513 62.7475 1.81645 63.3865 1.81524C64.0249 1.81645 64.5534 2.03513 64.9938 2.48091C65.432 2.92683 65.6507 3.48769 65.6515 4.18725C65.6507 4.88681 65.432 5.44771 64.9938 5.89358C64.5534 6.33941 64.025 6.55805 63.3865 6.55926C62.7475 6.55805 62.2203 6.33941 61.7788 5.89358L61.7055 5.96623ZM65.6552 6.48503L65.5814 6.41326C64.9901 7.02008 64.267 7.31986 63.3865 7.32107C62.5055 7.31982 61.7824 7.02008 61.1922 6.41326C60.6022 5.80436 60.311 5.07008 60.3101 4.18725C60.311 3.30442 60.6022 2.57013 61.1922 1.96128C61.7824 1.35442 62.5055 1.05426 63.3865 1.05306C64.2614 1.05426 64.9828 1.35567 65.5774 1.96569C66.1695 2.57738 66.4624 3.3105 66.4637 4.18725C66.4624 5.07008 66.1704 5.80436 65.5814 6.41326L65.6552 6.48503L65.7293 6.5568C66.3544 5.91373 66.6706 5.11604 66.6699 4.18725C66.6707 3.26375 66.3532 2.46768 65.7252 1.82174C65.0969 1.17324 64.3097 0.845324 63.3865 0.846438C62.4584 0.845324 61.6689 1.17171 61.0445 1.8177V1.81724C60.4181 2.46077 60.103 3.25846 60.1039 4.18725C60.103 5.11604 60.4181 5.91373 61.0445 6.55722L61.0472 6.56014L61.0445 6.5568C61.6689 7.20279 62.4584 7.52848 63.3865 7.52764C64.3142 7.52848 65.1037 7.20279 65.7293 6.5568L65.6552 6.48503ZM67.6825 7.28598V1.08852H68.6502L71.6572 5.90965H71.6915L71.6572 4.71533V1.08852H72.4528V7.28588H71.623L68.4769 2.23112H68.4427L68.4769 3.42586V7.28588H67.6826" fill="black"/>
<path d="M67.6825 7.28604H67.7857V1.19192H68.5929L71.6 6.01305H71.7974L71.7603 4.71391V1.19197H72.3497V7.18271H71.6802L68.5342 2.12795H68.3368L68.3738 3.42764V7.18271H67.6826V7.286V7.38928H68.58V3.42434L68.5458 2.22845L68.4427 2.23124V2.33452H68.4769V2.23124L68.3895 2.28615L71.5658 7.38928H72.5559V0.985352H71.5541V4.71665L71.5883 5.91254L71.6915 5.90976V5.80647H71.6572V5.90976L71.7447 5.85494L68.7073 0.985352H67.5795V7.38928H67.6826V7.286M100.022 24.8452H101.947V11.9328H100.022L100.022 24.8452ZM117.354 16.5842L115.149 22.1823H115.082L112.793 16.5841H110.72L114.153 24.4086L112.196 28.7609H114.204L119.494 16.5841L117.354 16.5842ZM106.442 23.3786C105.811 23.3786 104.932 23.0631 104.932 22.282C104.932 21.2853 106.027 20.9033 106.972 20.9033C107.819 20.9033 108.216 21.086 108.73 21.3355C108.581 22.5313 107.552 23.3786 106.442 23.3786ZM106.674 16.3017C105.281 16.3017 103.838 16.9165 103.241 18.2787L104.949 18.9928C105.314 18.2787 105.993 18.0459 106.707 18.0459C107.702 18.0459 108.714 18.6442 108.73 19.7074V19.8402C108.382 19.6408 107.636 19.3418 106.723 19.3418C104.883 19.3418 103.008 20.3549 103.008 22.2488C103.008 23.9766 104.518 25.0897 106.209 25.0897C107.503 25.0897 108.216 24.5083 108.664 23.8273H108.73V24.8239H110.587V19.8732C110.587 17.5811 108.88 16.3017 106.674 16.3017ZM94.7818 18.156H92.0449V13.7299H94.7818C96.2204 13.7299 97.0371 14.923 97.0371 15.9429C97.0371 16.9436 96.2203 18.156 94.7818 18.156ZM94.7323 11.9328H90.1216V24.8452H92.0448V19.9531H94.7323C96.8649 19.9531 98.9613 18.4066 98.9613 15.9429C98.9613 13.4794 96.8649 11.9328 94.7323 11.9328ZM69.5899 23.381C68.2606 23.381 67.1476 22.2662 67.1476 20.735C67.1476 19.1878 68.2606 18.056 69.5899 18.056C70.9024 18.056 71.9324 19.1877 71.9324 20.735C71.9324 22.2662 70.9023 23.381 69.5899 23.381ZM71.7994 17.3072H71.7329C71.3011 16.7914 70.4701 16.3255 69.4236 16.3255C67.2306 16.3255 65.2205 18.2557 65.2205 20.735C65.2205 23.1979 67.2305 25.1115 69.4236 25.1115C70.4701 25.1115 71.3011 24.6455 71.7329 24.1133H71.7994V24.7455C71.7994 26.4265 70.9024 27.325 69.457 27.325C68.2775 27.325 67.5464 26.4761 67.2471 25.7607L65.5694 26.4595C66.0512 27.6243 67.3305 29.0555 69.457 29.0555C71.7164 29.0555 73.627 27.724 73.627 24.4793V16.5918H71.7994V17.3072ZM74.9559 24.8452H76.8831V11.9323H74.9559V24.8452ZM79.7241 20.5854C79.6742 18.8879 81.0365 18.0228 82.0166 18.0228C82.7814 18.0228 83.429 18.4053 83.6445 18.955L79.7241 20.5854ZM85.7049 19.1211C85.3398 18.139 84.2261 16.3255 81.9501 16.3255C79.6907 16.3255 77.8135 18.106 77.8135 20.7185C77.8135 23.1813 79.6742 25.1115 82.166 25.1115C84.1766 25.1115 85.3398 23.8801 85.8214 23.1647L84.3261 22.1661C83.828 22.8984 83.1465 23.381 82.166 23.381C81.186 23.381 80.4883 22.9316 80.0395 22.0499L85.9039 19.6202L85.7049 19.1211ZM38.9819 17.6734V19.5371H43.4342C43.3013 20.5854 42.9524 21.3507 42.4207 21.8833C41.773 22.5325 40.7595 23.2479 38.9818 23.2479C36.2405 23.2479 34.0976 21.0348 34.0976 18.2891C34.0976 15.5435 36.2405 13.3301 38.9819 13.3301C40.4606 13.3301 41.5401 13.9127 42.3377 14.6615L43.6501 13.347C42.5371 12.2818 41.0584 11.4665 38.9819 11.4665C35.2271 11.4665 32.0706 14.5284 32.0706 18.2891C32.0706 22.0499 35.2271 25.1115 38.9819 25.1115C41.0088 25.1115 42.5371 24.4462 43.7331 23.1979C44.9626 21.9664 45.3449 20.2359 45.3449 18.8383C45.3449 18.4053 45.3118 18.0063 45.2449 17.6734H38.9819ZM50.4067 23.381C49.0774 23.381 47.931 22.2827 47.931 20.7185C47.931 19.1376 49.0774 18.056 50.4067 18.056C51.7356 18.056 52.882 19.1376 52.882 20.7185C52.882 22.2827 51.7356 23.381 50.4067 23.381ZM50.4067 16.3255C47.9809 16.3255 46.0038 18.1725 46.0038 20.7185C46.0038 23.2479 47.9809 25.1115 50.4067 25.1115C52.8321 25.1115 54.8091 23.2479 54.8091 20.7185C54.8091 18.1725 52.8321 16.3255 50.4067 16.3255ZM60.0107 23.381C58.6819 23.381 57.5354 22.2827 57.5354 20.7185C57.5354 19.1376 58.6819 18.056 60.0108 18.056C61.3397 18.056 62.4861 19.1376 62.4861 20.7185C62.4861 22.2827 61.3396 23.381 60.0107 23.381ZM60.0107 16.3255C57.585 16.3255 55.6083 18.1725 55.6083 20.7185C55.6083 23.2479 57.585 25.1115 60.0108 25.1115C62.4362 25.1115 64.4133 23.2479 64.4133 20.7185C64.4133 18.1725 62.4361 16.3255 60.0107 16.3255Z" fill="black"/>
<path d="M0.583889 1.72006C0.237822 2.0328 0.03125 2.55443 0.03125 3.24684V3.09031V25.9391V25.7886C0.03125 26.428 0.208438 26.9219 0.508502 27.2399L0.585096 27.3133V27.3137C0.827969 27.5332 1.13941 27.6497 1.49634 27.6494C1.84509 27.6494 2.23749 27.538 2.65161 27.3028L17.6201 18.7843L22.7616 15.8578C23.4146 15.4863 23.7812 15.0069 23.8425 14.5187V14.5167C23.7812 14.0273 23.4146 13.5484 22.7617 13.1768L17.6197 10.2507L2.65165 1.73213C2.23665 1.49655 1.84398 1.38477 1.49429 1.38477C1.13778 1.38477 0.826762 1.50096 0.583982 1.72006H0.583889Z" fill="#00C1FF"/>
<path d="M0.585142 27.3132L0.508502 27.2398C0.208438 26.9218 0.03125 26.4279 0.03125 25.7885V25.939V3.09588V3.24675C0.03125 2.55434 0.237822 2.03271 0.583889 1.71997L13.3606 14.517L0.585142 27.3132Z" fill="url(#paint0_linear_299_12832)"/>
<path d="M17.6201 18.7842L13.3606 14.5171L17.6197 10.2507L22.7617 13.1767C23.4146 13.5483 23.7812 14.0273 23.8425 14.5167V14.5186C23.7812 15.0069 23.4146 15.4863 22.7617 15.8578L17.6201 18.7841" fill="url(#paint1_linear_299_12832)"/>
<path d="M1.49635 27.6492C1.13947 27.6495 0.828032 27.5329 0.585205 27.3134V27.3131L13.3607 14.5169L17.6201 18.784L2.65162 27.3026C2.23751 27.5378 1.84511 27.6492 1.49635 27.6492Z" fill="url(#paint2_linear_299_12832)"/>
<path d="M13.3606 14.5171L0.583862 1.72005C0.826736 1.50094 1.13775 1.38475 1.49422 1.38475C1.84391 1.38475 2.23663 1.49648 2.65158 1.73211L17.6197 10.2507L13.3606 14.5171" fill="url(#paint3_linear_299_12832)"/>
<path d="M1.4967 27.8005C1.13982 27.8005 0.827966 27.6839 0.585093 27.4645L0.584675 27.4648C0.583676 27.4638 0.582605 27.4629 0.581472 27.462L0.515044 27.397C0.512955 27.395 0.511005 27.3926 0.508545 27.3903L0.585139 27.3135C0.828013 27.533 1.1394 27.6496 1.49638 27.6492C1.84509 27.6492 2.23749 27.5379 2.65161 27.3027L17.6201 18.7841L17.716 18.8802L17.6189 18.9354L2.65156 27.4535C2.27416 27.6678 1.91519 27.7796 1.59094 27.7982C1.55955 27.7997 1.52813 27.8005 1.4967 27.8005Z" fill="url(#paint4_linear_299_12832)"/>
<path d="M0.508502 27.3904C0.208438 27.0724 0.03125 26.5789 0.03125 25.9391V25.7886C0.03125 26.428 0.208438 26.9219 0.508502 27.2399L0.585096 27.3133L0.508502 27.3904Z" fill="url(#paint5_linear_299_12832)"/>
<path d="M17.716 18.8801L17.6201 18.784L22.7617 15.8576C23.4147 15.4861 23.7813 15.0067 23.8425 14.5185C23.8425 14.6977 23.8026 14.8768 23.7233 15.0512C23.5634 15.4026 23.2428 15.7346 22.7617 16.0085L17.716 18.8801" fill="url(#paint6_linear_299_12832)"/>
<path d="M23.8425 14.5166C23.7812 14.0272 23.4146 13.5483 22.7617 13.1766L17.6196 10.2506L17.7155 10.1545H17.716L22.7617 13.0261C23.4816 13.4361 23.8421 13.9763 23.8425 14.5166Z" fill="url(#paint7_linear_299_12832)"/>
<path d="M0.03125 3.24683V3.089C0.03125 3.03208 0.0327819 2.97643 0.0357064 2.92239V2.91993C0.0357064 2.91919 0.0357064 2.9184 0.0359849 2.91756V2.91148C0.0670404 2.3607 0.237822 1.93108 0.508502 1.64419L0.583889 1.72C0.237822 2.03278 0.03125 2.55441 0.03125 3.24683Z" fill="url(#paint8_linear_299_12832)"/>
<path d="M17.6197 10.2507L2.65161 1.73206C2.23665 1.49647 1.84398 1.38474 1.49429 1.38474C1.13778 1.38474 0.826759 1.50093 0.583932 1.72004L0.508545 1.64418C0.532088 1.61922 0.556553 1.59514 0.58189 1.572C0.582679 1.57117 0.583932 1.57033 0.584721 1.56954C0.825645 1.35211 1.13337 1.23591 1.48668 1.23382H1.49429C1.84398 1.23382 2.23665 1.34561 2.65161 1.58128L17.716 10.1543L17.7156 10.1546L17.6197 10.2507Z" fill="url(#paint9_linear_299_12832)"/>
<defs>
<linearGradient id="paint0_linear_299_12832" x1="8.19634" y1="2.85445" x2="-2.81433" y2="13.8828" gradientUnits="userSpaceOnUse">
<stop stop-color="#00A0FF"/>
<stop offset="0.00657" stop-color="#00A1FF"/>
<stop offset="0.2601" stop-color="#00BEFF"/>
<stop offset="0.5122" stop-color="#00D2FF"/>
<stop offset="0.7604" stop-color="#00DFFF"/>
<stop offset="1" stop-color="#00E3FF"/>
</linearGradient>
<linearGradient id="paint1_linear_299_12832" x1="24.6381" y1="14.4433" x2="-0.314527" y2="14.4433" gradientUnits="userSpaceOnUse">
<stop stop-color="#FFE000"/>
<stop offset="0.4087" stop-color="#FFBD00"/>
<stop offset="0.7754" stop-color="#FFA500"/>
<stop offset="1" stop-color="#FF9C00"/>
</linearGradient>
<linearGradient id="paint2_linear_299_12832" x1="15.3587" y1="18.5739" x2="-3.29967" y2="37.1258" gradientUnits="userSpaceOnUse">
<stop stop-color="#FF3A44"/>
<stop offset="1" stop-color="#C31162"/>
</linearGradient>
<linearGradient id="paint3_linear_299_12832" x1="-2.70906" y1="-0.177179" x2="5.60656" y2="8.10373" gradientUnits="userSpaceOnUse">
<stop stop-color="#32A071"/>
<stop offset="0.0685" stop-color="#2DA771"/>
<stop offset="0.4762" stop-color="#15CF74"/>
<stop offset="0.8009" stop-color="#06E775"/>
<stop offset="1" stop-color="#00F076"/>
</linearGradient>
<linearGradient id="paint4_linear_299_12832" x1="15.3494" y1="21.5339" x2="0.406821" y2="36.5006" gradientUnits="userSpaceOnUse">
<stop stop-color="#CC2E36"/>
<stop offset="1" stop-color="#9C0E4E"/>
</linearGradient>
<linearGradient id="paint5_linear_299_12832" x1="1.7333" y1="2.85451" x2="-7.96694" y2="12.5705" gradientUnits="userSpaceOnUse">
<stop stop-color="#008DE0"/>
<stop offset="0.00657" stop-color="#008DE0"/>
<stop offset="0.2601" stop-color="#00A7E0"/>
<stop offset="0.5122" stop-color="#00B8E0"/>
<stop offset="0.7604" stop-color="#00C4E0"/>
<stop offset="1" stop-color="#00C7E0"/>
</linearGradient>
<linearGradient id="paint6_linear_299_12832" x1="24.6382" y1="14.5175" x2="-0.314499" y2="14.5175" gradientUnits="userSpaceOnUse">
<stop stop-color="#E0C500"/>
<stop offset="0.4087" stop-color="#E0A600"/>
<stop offset="0.7754" stop-color="#E09100"/>
<stop offset="1" stop-color="#E08900"/>
</linearGradient>
<linearGradient id="paint7_linear_299_12832" x1="24.6381" y1="14.5176" x2="-0.314489" y2="14.5176" gradientUnits="userSpaceOnUse">
<stop stop-color="#FFE840"/>
<stop offset="0.4087" stop-color="#FFCE40"/>
<stop offset="0.7754" stop-color="#FFBC40"/>
<stop offset="1" stop-color="#FFB540"/>
</linearGradient>
<linearGradient id="paint8_linear_299_12832" x1="1.72277" y1="2.87207" x2="-7.62027" y2="11.8248" gradientUnits="userSpaceOnUse">
<stop stop-color="#40B8FF"/>
<stop offset="0.00657" stop-color="#40B9FF"/>
<stop offset="0.2601" stop-color="#40CEFF"/>
<stop offset="0.5122" stop-color="#40DDFF"/>
<stop offset="0.7604" stop-color="#40E7FF"/>
<stop offset="1" stop-color="#40EAFF"/>
</linearGradient>
<linearGradient id="paint9_linear_299_12832" x1="-2.72766" y1="2.52914" x2="3.94487" y2="9.21252" gradientUnits="userSpaceOnUse">
<stop stop-color="#65B895"/>
<stop offset="0.0685" stop-color="#62BD95"/>
<stop offset="0.4762" stop-color="#50DB97"/>
<stop offset="0.8009" stop-color="#44ED98"/>
<stop offset="1" stop-color="#40F498"/>
</linearGradient>
</defs>
</svg>
